<svg xmlns="http://www.w3.org/2000/svg" width="16.981" height="17.173" viewBox="0 0 16.981 17.173">
  <g id="Edit_Square" data-name="Edit Square" transform="translate(0.75 0.914)">
    <path id="Stroke_1" data-name="Stroke 1" d="M7.185,0H4.112A3.987,3.987,0,0,0,0,4.322v6.833a3.983,3.983,0,0,0,4.112,4.322h7.252a3.983,3.983,0,0,0,4.113-4.322V7.845" transform="translate(0 0.032)" fill="none" stroke="#303030" stroke-linecap="round" stroke-linejoin="round" stroke-miterlimit="10" stroke-width="1.5"/>
    <path id="Stroke_3" data-name="Stroke 3" d="M.6,6.715,6.741.573a1.96,1.96,0,0,1,2.77,0l1,1a1.959,1.959,0,0,1,0,2.77L4.34,10.515a1.784,1.784,0,0,1-1.262.523H0L.077,7.931A1.784,1.784,0,0,1,.6,6.715Z" transform="translate(4.396 0)" fill="none" stroke="#303030" stroke-linecap="round" stroke-linejoin="round" stroke-miterlimit="10" stroke-width="1.5"/>
    <path id="Stroke_5" data-name="Stroke 5" d="M0,0,3.753,3.753" transform="translate(10.203 1.522)" fill="none" stroke="#303030" stroke-linecap="round" stroke-linejoin="round" stroke-miterlimit="10" stroke-width="1.5"/>
  </g>
</svg>
