<svg xmlns="http://www.w3.org/2000/svg" width="16.783" height="18.854" viewBox="0 0 16.783 18.854">
  <g id="Group_2979" data-name="Group 2979" transform="translate(0.2 0.2)">
    <g id="Group_2904" data-name="Group 2904" transform="translate(0 0)">
      <path id="Path_5203" data-name="Path 5203" d="M91.341,137.8H82.5a.271.271,0,0,0,0,.543h8.836a.271.271,0,1,0,0-.543Z" transform="translate(-80.305 -132.838)" fill="#1db1ff" stroke="#1db1ff" stroke-width="0.4"/>
      <path id="Path_5204" data-name="Path 5204" d="M82.5,86.1h4.418a.271.271,0,1,0,0-.543H82.5a.271.271,0,1,0,0,.543Z" transform="translate(-80.305 -82.474)" fill="#1db1ff" stroke="#1db1ff" stroke-width="0.4"/>
      <path id="Path_5205" data-name="Path 5205" d="M91.341,184.1H82.5a.271.271,0,1,0,0,.543h8.836a.271.271,0,1,0,0-.543Z" transform="translate(-80.305 -177.461)" fill="#1db1ff" stroke="#1db1ff" stroke-width="0.4"/>
      <path id="Path_5206" data-name="Path 5206" d="M32.942,16.566H30.115a.843.843,0,0,1-.842-.842V1.385a.843.843,0,0,1,.842-.842h8.147a.581.581,0,0,1,.078.006V2.242a1.386,1.386,0,0,0,1.385,1.385h1.693a.576.576,0,0,1,.006.078V8.327a.271.271,0,1,0,.543,0V3.7a1.108,1.108,0,0,0-.327-.788L39.05.327A1.107,1.107,0,0,0,38.261,0H30.115A1.386,1.386,0,0,0,28.73,1.385V15.724a1.386,1.386,0,0,0,1.385,1.385h2.828a.271.271,0,1,0,0-.543Zm8.1-13.482H39.724a.843.843,0,0,1-.842-.842V.927Z" transform="translate(-28.73 0)" fill="#1db1ff" stroke="#1db1ff" stroke-width="0.4"/>
      <path id="Path_5207" data-name="Path 5207" d="M101.483,257.076l-2.3-3.882a.6.6,0,0,0-.816-.209l-.559.331a1.063,1.063,0,0,0-.469,1.239.832.832,0,0,1-.585-.006c-.442-.139-.778-.419-1.332-.278-.942.24-.913.228-1,.257a1.451,1.451,0,0,0-1.468-.181l-.522.2a.834.834,0,0,1-.731-.061l-.142-.084a1.06,1.06,0,0,0-.506-1.087h0l-.559-.331a.6.6,0,0,0-.816.209l-2.3,3.882a.6.6,0,0,0,.209.816l.559.331a1.054,1.054,0,0,0,.539.148,1.068,1.068,0,0,0,.58-.171l.117.069-.246.343a.909.909,0,0,0,.88,1.429.909.909,0,0,0,1.038.745.91.91,0,0,0,1.256.683.909.909,0,0,0,1.546.256l.654.388a.911.911,0,0,0,1.368-.675h0a.91.91,0,0,0,1.372-.716.91.91,0,0,0,1.128-.787.911.911,0,0,0,1.029-1.434l.361-.211a1.059,1.059,0,0,0,.945-.068l.559-.331A.6.6,0,0,0,101.483,257.076Zm-13.059.68-.559-.331a.052.052,0,0,1-.018-.072l2.3-3.882a.053.053,0,0,1,.072-.018l.559.331a.518.518,0,0,1,.182.71l-1.825,3.081A.519.519,0,0,1,88.424,257.756Zm1.238,1.685a.367.367,0,0,1-.084-.513l.362-.5a.367.367,0,0,1,.6.428l-.362.5A.368.368,0,0,1,89.662,259.441Zm1.038.745a.368.368,0,0,1-.084-.513l.362-.5h0l.4-.556a.365.365,0,0,1,.239-.148.372.372,0,0,1,.06,0,.367.367,0,0,1,.3.582l-.761,1.06A.367.367,0,0,1,90.7,260.186Zm1.038.745a.368.368,0,0,1-.084-.512h0l.761-1.06a.367.367,0,1,1,.6.428l-.338.471h0l-.423.589A.368.368,0,0,1,91.737,260.931Zm1.208.508a.368.368,0,0,1-.084-.512l.253-.353a.367.367,0,0,1,.6.428l-.253.352A.368.368,0,0,1,92.945,261.439Zm6.084-2.164a.368.368,0,0,1-.5.129l-2.4-1.423a.271.271,0,1,0-.277.467l1.816,1.076h0a.367.367,0,0,1-.375.632l-1.817-1.077a.271.271,0,1,0-.277.467l1.338.793h0a.367.367,0,0,1-.375.632l-.718-.426h0l-.524-.311a.271.271,0,1,0-.277.467l.524.311h0a.367.367,0,1,1-.375.632l-.612-.362a11.041,11.041,0,0,1-.933-2.45.907.907,0,0,0-.672-.159.91.91,0,0,0-1.544-.487.909.909,0,0,0-1.265-.325l-.124-.073,1.707-2.882.081.048a1.374,1.374,0,0,0,1.2.1l.522-.2a.8.8,0,0,1,.759.016,1.215,1.215,0,0,0-.308.809v1.2a.581.581,0,0,0,.579.58h0a1.2,1.2,0,0,0,1.136-.813l3.582,2.121a.367.367,0,0,1,.129.5Zm1.969-1.85-.559.331a.519.519,0,0,1-.71-.182l-.855-1.444a.271.271,0,1,0-.467.277l.855,1.444c.016.027.034.053.052.078l-.238.139a1.365,1.365,0,0,0-.139.094l-3.688-2.184a.272.272,0,0,0-.41.233.693.693,0,0,1-.193.516.653.653,0,0,1-.465.192h0a.037.037,0,0,1-.037-.037v-1.2a.675.675,0,0,1,.509-.654l.9-.228c.327-.083.512.092,1,.258a1.372,1.372,0,0,0,1.038-.017l.164.277a.271.271,0,1,0,.467-.277l-.323-.545a.518.518,0,0,1,.182-.71l.559-.331a.052.052,0,0,1,.072.018l2.3,3.882A.052.052,0,0,1,101,257.425Z" transform="translate(-85.185 -243.788)" fill="#1db1ff" stroke="#1db1ff" stroke-width="0.4"/>
    </g>
  </g>
</svg>
