<svg xmlns="http://www.w3.org/2000/svg" width="73.545" height="73.561" viewBox="0 0 73.545 73.561">
  <g id="Group3194" transform="translate(-1314.187 -14547)">
    <g id="Group_3191" data-name="Group 3191" transform="translate(1364.499 14596.801)">
      <g id="Group_3189" data-name="Group 3189" transform="translate(0 0.318)">
        <path id="Path_5350" data-name="Path 5350" d="M238.27,279.492a.462.462,0,0,0-.1.027.255.255,0,0,1,.085-.064C238.26,279.471,238.27,279.482,238.27,279.492Z" transform="translate(-238.17 -279.455)" fill="#fff"/>
        <path id="Path_5351" data-name="Path 5351" d="M238.314,280.121a.219.219,0,0,0-.048.064c-.011-.027-.027-.064-.037-.085A.328.328,0,0,0,238.314,280.121Z" transform="translate(-238.186 -279.638)" fill="#fff"/>
        <path id="Path_5352" data-name="Path 5352" d="M238.884,286.831a.5.5,0,0,1-.122-.085h.085c.011.011.011.011.011.026A.285.285,0,0,1,238.884,286.831Z" transform="translate(-238.338 -281.525)" fill="#fff"/>
        <path id="Path_5353" data-name="Path 5353" d="M245.668,292.918Z" transform="translate(-240.298 -283.277)" fill="#fff"/>
        <path id="Path_5354" data-name="Path 5354" d="M246.105,279.519a.846.846,0,0,1-.111-.027c0-.011.011-.027.011-.037A.184.184,0,0,1,246.105,279.519Z" transform="translate(-240.391 -279.455)" fill="#fff"/>
        <path id="Path_5355" data-name="Path 5355" d="M245.51,286.746a.838.838,0,0,1-.138.1.414.414,0,0,1,.027-.074c0-.011,0-.011.011-.026Z" transform="translate(-240.214 -281.525)" fill="#fff"/>
      </g>
      <g id="Group_3190" data-name="Group 3190">
        <path id="Path_5356" data-name="Path 5356" d="M245.51,286.746a.838.838,0,0,1-.138.1.414.414,0,0,1,.027-.074c0-.011,0-.011.011-.026Z" transform="translate(-240.214 -281.207)" fill="#fff"/>
        <path id="Path_5357" data-name="Path 5357" d="M246.105,279.519a.846.846,0,0,1-.111-.027c0-.011.011-.027.011-.037A.184.184,0,0,1,246.105,279.519Z" transform="translate(-240.391 -279.137)" fill="#fff"/>
        <path id="Path_5358" data-name="Path 5358" d="M238.644,292.918Z" transform="translate(-238.304 -282.959)" fill="#fff"/>
        <path id="Path_5359" data-name="Path 5359" d="M238.27,279.492a.462.462,0,0,0-.1.027.255.255,0,0,1,.085-.064C238.26,279.471,238.27,279.482,238.27,279.492Z" transform="translate(-238.17 -279.137)" fill="#fff"/>
        <path id="Path_5360" data-name="Path 5360" d="M241,279.037c-.011.011-.027.027-.037.027a.991.991,0,0,1-.122-.027v-.026h.011A.461.461,0,0,1,241,279.037Z" transform="translate(-238.929 -279.01)" fill="#fff"/>
        <path id="Path_5361" data-name="Path 5361" d="M238.884,286.831a.5.5,0,0,1-.122-.085h.085c.011.011.011.011.011.026A.285.285,0,0,1,238.884,286.831Z" transform="translate(-238.338 -281.207)" fill="#fff"/>
      </g>
    </g>
    <path id="Path_5362" data-name="Path 5362" d="M166.45,293.458c-.074,0-.159-.011-.233-.011a1.57,1.57,0,0,0,.223-.011C166.45,293.431,166.45,293.447,166.45,293.458Z" transform="translate(1152.586 14313.694)" fill="#fff"/>
    <path id="Path_5363" data-name="Path 5363" d="M266.267,293.324a1.07,1.07,0,0,1-.048.175,2.978,2.978,0,0,1-.493.027,1.762,1.762,0,0,0,.064-.223A3.6,3.6,0,0,1,266.267,293.324Z" transform="translate(1116.701 14313.732)" fill="#fff"/>
    <g id="Group_3192" data-name="Group 3192" transform="translate(1362.418 14586.72)">
      <path id="Path_5364" data-name="Path 5364" d="M234.973,264.97c-.1.122-.2.249-.308.371h-.037l.281-.409C234.936,264.943,234.946,264.959,234.973,264.97Z" transform="translate(-234.628 -264.933)" fill="#fff"/>
      <path id="Path_5365" data-name="Path 5365" d="M238.133,279.544l-.037.037c-.011.027-.037.037-.048.064a.209.209,0,0,1-.027-.074A.843.843,0,0,1,238.133,279.544Z" transform="translate(-235.591 -269.081)" fill="#fff"/>
      <path id="Path_5366" data-name="Path 5366" d="M238.27,279.492a.462.462,0,0,0-.1.027.255.255,0,0,1,.085-.064C238.26,279.471,238.27,279.482,238.27,279.492Z" transform="translate(-235.633 -269.056)" fill="#fff"/>
      <path id="Path_5367" data-name="Path 5367" d="M238.314,280.121a.219.219,0,0,0-.048.064c-.011-.027-.027-.064-.037-.085A.328.328,0,0,0,238.314,280.121Z" transform="translate(-235.65 -269.239)" fill="#fff"/>
    </g>
    <path id="Path_5368" data-name="Path 5368" d="M168.284,293.518a17.052,17.052,0,0,0,16.2,11.737h36.165a17.035,17.035,0,0,0,16.162-11.636C214.052,294.457,191.035,294.431,168.284,293.518Z" transform="translate(1148.377 14313.671)" fill="#808122"/>
    <path id="Path_5369" data-name="Path 5369" d="M251.788,285.094l.011.011.011-.011Z" transform="translate(1121.758 14316.063)" fill="#808122"/>
    <path id="Path_5370" data-name="Path 5370" d="M245.379,286.847c.048-.027.085-.064.138-.1h-.1c-.011.011-.011.011-.011.026A.305.305,0,0,0,245.379,286.847Z" transform="translate(1124.06 14315.594)" fill="#808122"/>
    <path id="Path_5371" data-name="Path 5371" d="M184.151,211.755A17.05,17.05,0,0,0,167.1,228.808V251.14c.111.5,0,.987.085,1.517h2.664V256.1c1.109,0,2.149.027,3.194-.011.393-.026.52-.568.233-1.109a29.047,29.047,0,0,1-2.022-5.566,66.687,66.687,0,0,1-1.693-8.8c-.138-1.1-.334-2.186-.43-3.295a.911.911,0,0,1,.271-.849,14.828,14.828,0,0,1,4.319-2.9c.2-.1.393-.175.594-.271.3.122.244.419.271.679a75.891,75.891,0,0,0,2.382,13.684,31.069,31.069,0,0,0,2.764,6.823,3.258,3.258,0,0,1,.281,1.284c3.136,0,6.218.011,9.291,0,1.91,0,3.815-.037,5.725-.048a.617.617,0,0,0,.679-.355c1.061-2.112,2.122-4.218,3.21-6.3.875-1.7,1.666-3.465,2.653-5.11a.864.864,0,0,0-.011-.865,42.347,42.347,0,0,1-1.937-6.378.8.8,0,0,1-.048-.186c-.048-.212-.1-.409-.149-.615-.356-1.48-.631-2.971-.96-4.59a16.46,16.46,0,0,1,3.566.838v-3.024h8.845a14.952,14.952,0,0,0-.886,2.335c-.281,1.342-1.109,1.342-2.075,1.183-.122,1.629-.2,3.136.743,4.441a1.008,1.008,0,0,1-.027,1.321,5.878,5.878,0,0,0-.557,3.061c-.048,1.061-.011,2.122-.011,3.184a3.615,3.615,0,0,0,1.22,1.974c.212.085.3-.085.393-.223.393-.456.8-.9,1.162-1.4a.453.453,0,0,1,.716-.111c1.693,1.21,3.369,2.43,5.046,3.666.027.011.037.074.111.212-.3.356-.6.727-.913,1.1.281.149.557.3.812.43a.412.412,0,0,1,.271.318c0,.027.027.048.027.085a.567.567,0,0,0,.493.531.752.752,0,0,1,.3.186c.456.446.913.875,1.369,1.311a.223.223,0,0,1,.064.149c0,.138.011.271.011.409-.1-.011-.186-.1-.287-.138.027.159.037.318.064.467.011.085.074.085.122.111a3.6,3.6,0,0,1,.594.382,1.355,1.355,0,0,1,.419.8c-.048.064-.122-.027-.2.027a9.8,9.8,0,0,0,.817,1.135.849.849,0,0,0-.1.615c.027.122.037.223.138.249a1.51,1.51,0,0,1,.669.557c.037.027.074.064.064.1a1.167,1.167,0,0,0,.159.631c-.064-.011-.085-.064-.111-.111a7.141,7.141,0,0,0-1.035-1.173c-.233-.26-.212-.149-.138-.483a1.413,1.413,0,0,0-.037-.653.227.227,0,0,0-.1-.149,1.626,1.626,0,0,1-.568-.875c0-.011-.011-.037-.011-.048.074-.456-.26-.467-.446-.706-.037.382-.223.308-.409.233s-.111-.281-.186-.409c.011-.011.011-.027.027-.027.064-.074.2-.011.212-.149a1.049,1.049,0,0,0-.122-.456c-.048-.085-.085-.159-.138-.26.074-.064.149-.122.233-.186a1.4,1.4,0,0,0-.233-.345,4.6,4.6,0,0,0-.913-.8c-.138-.1-.149.111-.26.122-.1-.334-.334-.26-.557-.356.149-.382-.048-.541-.271-.706a7.532,7.532,0,0,0-.716-.446.485.485,0,0,0-.334-.011c-.976,1.183-1.974,2.393-2.987,3.613-1.443-1.8-2.839-3.555-4.356-5.428v7.073h2.7v4.346c.5.027,1,.048,1.491.085a5.9,5.9,0,0,1,.085,1.629h-1.507c-.3.493.149,1.183-.3,1.454-.345.2-.828.074-1.305.1v1.332h-1.581a13.09,13.09,0,0,0-.233-2.764,5.022,5.022,0,0,0-4.319-3.9,12.311,12.311,0,0,0-3.332.1,4.955,4.955,0,0,0-3.6,3.343c-.159.371,0,.96-.615,1-.642.027-.493-.578-.653-.96-.812-1.947-2.085-3.295-4.07-3.465a15.015,15.015,0,0,0-3.65.048c-2.133.371-3.38,1.852-3.985,4.123a11.49,11.49,0,0,0-.159,2.467h-1.491c-.175-.249,0-.568-.122-.875-.149-.011-.334-.037-.594-.064v-4.144c0-1.544-.318-1.841-1.666-1.767-1.051.064-2.059-.1-3.109-.1-1.013,0-2.037.074-3.046.085-1.873.011-3.741-.074-5.614-.027a2.6,2.6,0,0,0-.371.027v.568h.048c4.144,0,8.293.037,12.437,0,.6-.011.865.244.838.976-.048,1.406-.037,2.8,0,4.2.011.69-.212.95-.812.939-2.059-.027-4.107-.011-6.171-.011-2.048.011-4.107-.011-6.155.011a1,1,0,0,1-.186-.011V265a17.06,17.06,0,0,0,.812,5.221q9.2-.374,18.459-.541a6.251,6.251,0,0,1-2.642-5.221c0-3.343,2.4-6.07,5.38-6.07s5.391,2.727,5.391,6.07a6.584,6.584,0,0,1-.355,2.159l-.446,1.013-.43.69-.791.875a2.991,2.991,0,0,1-.5.393c2.234-.037,4.478-.064,6.712-.064a6.319,6.319,0,0,1-2.43-5.072c0-3.343,2.419-6.07,5.38-6.07s5.391,2.727,5.391,6.07a6.681,6.681,0,0,1-.345,2.133.418.418,0,0,1-.048.122l-.318.743c-.048.1-.1.2-.159.3l-.355.568-.791.875a2.94,2.94,0,0,1-.382.308c3.666,0,7.343.037,11,.085-.149-.186-.3-.371-.456-.541a.809.809,0,0,0-.212-.149c-.775-.3-1.544-.6-2.308-.9-.048-.027-.1-.037-.149-.064a1.317,1.317,0,0,1-.456-.345c-.175-.159-.318-.318-.493-.483a.224.224,0,0,1-.085-.159c0-.027-.011-.037-.011-.064-.027-.1-.048-.175-.064-.249v-.011a1.9,1.9,0,0,1,.074-1.21.2.2,0,0,1,.1-.149c.5-.371,1.035-.679,1.565-1.013.159-.111.355-.048.541-.1a.157.157,0,0,0,.122-.027,3.994,3.994,0,0,0-.027-.568.383.383,0,0,1,.074-.233,4.767,4.767,0,0,1,.987-.95c.122-.1.281-.074.419-.122a2.325,2.325,0,0,0,.345-.085.21.21,0,0,1,.064-.159,3.411,3.411,0,0,0,.467-.669,3.779,3.779,0,0,0,.249-.371.253.253,0,0,1,.159-.122c.1-.011.186-.048.281-.064a.62.62,0,0,0,.594-.5.231.231,0,0,1,.186-.159c.074-.011.138-.027.212-.037a2.267,2.267,0,0,1-.122-.531,1.794,1.794,0,0,0-.223-.541,5.867,5.867,0,0,1-.594-1.788c-.027-.138-.074-.223-.186-.26-.355-.122-.467-.557-.631-.913-.138-.308-.3-.6-.43-.913a.471.471,0,0,0-.159-.175c-.149-.085-.3-.2-.446-.3a2.115,2.115,0,0,1-.764-.753c-.074-.111-.149-.175-.26-.159-.085,0-.175-.027-.26-.027a.385.385,0,0,1-.393-.26c-.048-.111-.122-.085-.2-.064l.838-1.146a.01.01,0,0,0,.011.011.193.193,0,0,0,.2.027c.111-.074.2,0,.308.085a1.552,1.552,0,0,1,.578,1.051c.011.159.085.223.2.2a.563.563,0,0,1,.467.186,1.4,1.4,0,0,0,.26.175.492.492,0,0,1,.223.308,3.236,3.236,0,0,0,.653,1.284.1.1,0,0,1,.048.064c.244.308.244.308.531.122a.4.4,0,0,0,.111-.064c0-.111-.074-.212-.064-.345.138.111.244.223.371.334a.171.171,0,0,0,.149.064.826.826,0,0,1,.568.233c-.175.271-.393.271-.642.048a2.224,2.224,0,0,0,.345.6,11.413,11.413,0,0,1,.987,1.284.835.835,0,0,1,.111.382c.064.541.064.541.446.8a.917.917,0,0,1,.212.149c-.048.212-.1.43-.138.669h-.011v.027a1.009,1.009,0,0,1,.122.027c.212.037.409.074.6.111.074.011.074-.048.085-.111.048-.2.1-.382.138-.578a.21.21,0,0,1,.122-.149,3.818,3.818,0,0,0,1-.52,1.706,1.706,0,0,1-.271,1.072c-.037.085-.138.048-.212.048a.23.23,0,0,0-.281.212c-.027.085-.085.149-.111.233-.122.43-.43.6-.69.849a.914.914,0,0,0,.212.074c.1.011.149.085.175.212a.527.527,0,0,0,.048.138.354.354,0,0,0,.048-.138c.027-.122.074-.2.175-.212a2.006,2.006,0,0,0,.716-.419c.027-.027.048-.037.064-.064a.945.945,0,0,1,.446-.419,3.215,3.215,0,0,1-.345-.149,1.28,1.28,0,0,1-.318-.223c.233-.037.467-.159.679.074.074.074.159.138.271.085-.1-.1-.2-.2-.308-.3a.289.289,0,0,1,.355-.085,4.416,4.416,0,0,0,1.47.393.226.226,0,0,1,.186.159.616.616,0,0,0,.594.5c.1.011.186.048.281.064a.258.258,0,0,1,.159.122c.074.138.175.249.244.371a4.158,4.158,0,0,0,.467.669.21.21,0,0,1,.064.159,1.581,1.581,0,0,0,.355.085c.138.048.281.027.409.122a4.769,4.769,0,0,1,.987.95.311.311,0,0,1,.074.233,4.97,4.97,0,0,0-.027.568.157.157,0,0,0,.122.027c.186.048.382-.011.557.1.52.334,1.051.642,1.555,1.013a.236.236,0,0,1,.1.149,1.8,1.8,0,0,1,.074,1.21v.011a2.477,2.477,0,0,1-.064.249.134.134,0,0,1-.011.064.224.224,0,0,1-.085.159c-.159.159-.318.318-.493.483a1.255,1.255,0,0,1-.456.345c-.048.027-.1.037-.138.064-.78.3-1.544.6-2.319.9a.809.809,0,0,0-.212.149c-.212.233-.409.5-.6.753,2.356.037,4.7.111,7.057.186-.8-.467-2.1-1.406-2.1-2.494,0-1.48.111-4.43.111-4.457a.08.08,0,0,1,.037-.074c.011-.027.048-.027.074-.027l2.011.1V248.838a.218.218,0,0,1-.122-.2v-.5a3.715,3.715,0,0,0-.345-.493A1.1,1.1,0,0,1,232.3,247v-1.061a.1.1,0,0,1,.1-.1h2.441a.107.107,0,0,1,.111.1V247a1.1,1.1,0,0,1-.345.642,2.655,2.655,0,0,0-.345.493v.5a.218.218,0,0,1-.122.2v13.3h-.175v.393h.175v.493l2.011-.1a.087.087,0,0,1,.074.027.136.136,0,0,1,.027.074c.011.026.111,2.971.111,4.457,0,1.125-1.38,2.1-2.16,2.542.8.011,1.592.048,2.393.085a17.215,17.215,0,0,0,.78-5.12V228.813a17.05,17.05,0,0,0-17.053-17.053H184.151Zm-12.686,41.152a25.876,25.876,0,0,1-2.234-3.566c-.149-.233-.26-.5-.409-.727a5.616,5.616,0,0,1-.8-3.5c.011-1.926-.175-3.852.011-5.789a2.935,2.935,0,0,1,.345-1.247C169.082,243.171,169.772,248.158,171.465,252.907Zm13.8.175c-1.321.52-2.679.95-3.985,1.491-.419.159-.594,0-.764-.334a38.3,38.3,0,0,1-3.247-8.675c-.631-2.531-1.051-5.094-1.433-7.672-.244-1.655-.409-3.321-.6-4.988a40.671,40.671,0,0,1,4.9-1.528,22.516,22.516,0,0,1,2.319-.5c.334-.037.393.064.446.382.318,2.382.615,4.765,1.013,7.131.318,1.9.69,3.815,1.183,5.677a46.832,46.832,0,0,0,2.626,7.922C186.889,252.35,186.088,252.759,185.26,253.082Zm13.509-16.427a52.928,52.928,0,0,0,1.974,6.553c.138.345.249.716.393,1.146a63.28,63.28,0,0,1-12.612,7.306,11.978,11.978,0,0,1-1.146-2.754,54.779,54.779,0,0,1-1.862-6.563c-.531-2.382-.987-4.775-1.295-7.205-.159-1.284-.334-2.579-.541-3.852-.085-.557.074-.727.541-.764a46.149,46.149,0,0,1,7.057-.233c1.984.122,3.958.382,5.937.679.334.048.467.249.531.6C198.031,233.286,198.366,234.979,198.769,236.655Zm20.905,17.127a.145.145,0,0,1-.1-.085c-.085-.212-.175-.409-.271-.615a.528.528,0,0,1,.223-.074c.037.011.048.037.048.074.027.175.085.271.223.26.064-.011.1.037.111.122.011.122.037.249.048.393C219.86,253.83,219.759,253.809,219.674,253.783Zm-2.595,1.024c-.149.011-.223-.074-.244-.26a.37.37,0,0,0-.159-.281l-.249-.249c.085-.064.159-.111.233-.175a1.061,1.061,0,0,1,.149.26c.074.122.138.26.281.249.048,0,.074.027.085.1.011.122.037.249.048.371C217.17,254.823,217.117,254.807,217.079,254.807Zm3.295,3.788a.854.854,0,0,1-.3-.064.09.09,0,0,1-.074-.074,5.4,5.4,0,0,0-.371-.9c.138.064.244.122.355.175a.117.117,0,0,1,.064.111,2.365,2.365,0,0,0,.027.334c.1.027.2.048.3.085A1.175,1.175,0,0,1,220.374,258.6Zm.483-3.083c-.159.186-.159.186-.308-.011-.064-.085-.138-.175-.212-.26C220.634,255.114,220.65,255.13,220.857,255.512Z" transform="translate(1148.715 14336.885)" fill="#808122"/>
    <path id="Path_5372" data-name="Path 5372" d="M238.954,284.826a.48.48,0,0,1,.371.027.474.474,0,0,0,.43.037,2.191,2.191,0,0,1,1.38,0,.47.47,0,0,0,.43-.037.5.5,0,0,1,.371-.027.913.913,0,0,0,.493.037c.111-.011.233,0,.355,0,.037-.122.1-.212.223-.159a.141.141,0,0,0,.074-.027c.3-.159.594-.271.886-.393a.934.934,0,0,0,.233-.111c-.122-.26-.244-.5-.371-.753a.262.262,0,0,1-.064-.159c.011-.233.011-.483.011-.716a.146.146,0,0,1,.064-.138c.223-.138.419-.345.69-.3a1.15,1.15,0,0,0,.186-.037c-.048-.122-.111-.223-.159-.345a2.066,2.066,0,0,0-.615-.875.123.123,0,0,1-.048-.1c.011-.111-.048-.175-.074-.26a4.1,4.1,0,0,0-.753.308c.064-.159.111-.281.159-.409a.215.215,0,0,0-.011-.212c-.011-.027-.027-.037-.037-.064a2.882,2.882,0,0,1-.355.085c-.2.048-.212.037-.249.281-.027.149-.074.2-.186.233a7.357,7.357,0,0,1-.923.233.8.8,0,0,0-.271.149.872.872,0,0,1-.212.122.668.668,0,0,0,.26.064.984.984,0,0,0,.812-.318c.149-.159.271-.149.456-.048a1.287,1.287,0,0,1-.212.027.144.144,0,0,0-.122.085.9.9,0,0,1-.456.446c-.085.037-.159.122-.26.111-.212-.037-.43-.011-.642-.048-.122-.027-.26-.048-.382-.085a3.292,3.292,0,0,1-.382.085c-.212.037-.43.011-.642.048-.1.011-.175-.074-.26-.111a.884.884,0,0,1-.456-.446.16.16,0,0,0-.122-.085.968.968,0,0,1-.212-.027c.2-.1.308-.111.456.048a.99.99,0,0,0,.812.318.668.668,0,0,0,.26-.064,1.086,1.086,0,0,1-.212-.122.849.849,0,0,0-.271-.149c-.308-.064-.615-.138-.923-.233a.228.228,0,0,1-.175-.175,2.982,2.982,0,0,1-.371-.027.175.175,0,0,1-.175-.122l-.111-.223a.214.214,0,0,0-.011.212c.048.122.1.244.159.409a3.753,3.753,0,0,0-.753-.308c-.027.085-.085.149-.074.26a.151.151,0,0,1-.048.1,2.1,2.1,0,0,0-.615.875c-.048.122-.111.223-.159.345a1.15,1.15,0,0,0,.186.037c.271-.048.467.159.69.3a.151.151,0,0,1,.064.138c0,.233.011.483.011.716a.373.373,0,0,1-.048.159c-.138.249-.26.493-.382.753a.937.937,0,0,0,.233.111,7.763,7.763,0,0,1,.886.393.208.208,0,0,0,.074.027c.122-.048.186.037.223.159.122,0,.233-.011.355,0A.881.881,0,0,0,238.954,284.826Zm2.542-.663c.149.037.26-.074.371-.175.064-.037.111-.074.186-.037a.689.689,0,0,0,.615-.159c-.026-.085-.037-.159-.064-.233-.027-.037-.011-.074.011-.111.149-.2.3-.212.483-.027-.212.138-.111.409-.186.616-.334.037-.669.149-1.013.186-.149.011-.334,0-.334.3l-.027.027c-.138-.037-.271-.064-.419-.1C241.2,284.237,241.315,284.11,241.5,284.163Zm-3.513-.127c-.074-.212.027-.483-.186-.615.186-.186.334-.175.483.027a.1.1,0,0,1,.027.111,1.506,1.506,0,0,0-.074.233.689.689,0,0,0,.616.159c.074-.037.122,0,.186.037.111.1.223.212.371.175.2-.048.3.074.371.281-.149.037-.281.064-.419.1l-.027-.026c0-.3-.175-.281-.334-.3C238.646,284.184,238.312,284.073,237.983,284.036Z" transform="translate(1126.89 14317.477)" fill="#808122"/>
    <path id="Path_5373" data-name="Path 5373" d="M232.513,285.094h-.027l.011.011Z" transform="translate(1128.713 14316.063)" fill="#808122"/>
    <path id="Path_5374" data-name="Path 5374" d="M238.229,280.092c.011.027.027.064.037.085a.329.329,0,0,1,.048-.064A.143.143,0,0,1,238.229,280.092Z" transform="translate(1126.64 14317.483)" fill="#808122"/>
    <path id="Path_5375" data-name="Path 5375" d="M238.847,286.746h-.085a.389.389,0,0,0,.122.085.325.325,0,0,0-.027-.064C238.858,286.757,238.858,286.757,238.847,286.746Z" transform="translate(1126.446 14315.594)" fill="#808122"/>
    <path id="Path_5376" data-name="Path 5376" d="M246.012,279.455c0,.011-.011.027-.011.037a.848.848,0,0,1,.111.027A.236.236,0,0,0,246.012,279.455Z" transform="translate(1123.837 14317.664)" fill="#808122"/>
    <path id="Path_5377" data-name="Path 5377" d="M260.352,259.968h-1.406a.159.159,0,0,0-.149.175c.064.345.249,1.1.849,1.1.615,0,.8-.753.849-1.1A.143.143,0,0,0,260.352,259.968Z" transform="translate(1119.125 14323.196)" fill="#808122"/>
    <path id="Path_5378" data-name="Path 5378" d="M248.173,280.788c-.027-.048-.064-.085-.111-.074.064.064.122.111.175.175C248.21,280.852,248.2,280.825,248.173,280.788Z" transform="translate(1123.091 14317.307)" fill="#808122"/>
    <path id="Path_5379" data-name="Path 5379" d="M246.56,279.85a.327.327,0,0,1-.011-.1c0-.085-.037-.138-.111-.149a2.1,2.1,0,0,1-.281-.064.055.055,0,0,0,.027.037C246.29,279.7,246.4,279.85,246.56,279.85Z" transform="translate(1123.764 14317.641)" fill="#808122"/>
    <path id="Path_5380" data-name="Path 5380" d="M256.508,287.791c0,1.1,1.491,2.075,2.17,2.457-.149-.1-.318-.223-.52-.371a9.046,9.046,0,0,1-.913-.8,2.632,2.632,0,0,1-.446-.557c-.027-.048-.048-.111-.074-.175v-.053l-.011-.048-.027-.085c-.011-.111-.027-.249-.027-.356-.011-.122-.011-.233-.011-.355s0-.233,0-.345c0-.233,0-.456.011-.679.011-.446.037-.849.064-1.21.026-.446.064-.791.074-.987,0,.2-.011.557-.027,1-.011.345-.011.753-.011,1.2,0,.223,0,.446.011.679,0,.111.011.223.011.345s.011.233.027.345.037.223.048.334l.027.085.011.048v.026c.027.048.048.1.074.149a2.322,2.322,0,0,0,.419.493,9.443,9.443,0,0,0,.923.743c.271.186.5.334.679.446v-3.247a.527.527,0,0,0,.138-.048.337.337,0,0,0,.064-.037c.026,0,.037-.026.048-.037.027-.011.037-.037.064-.064a.665.665,0,0,1-.085.037.335.335,0,0,1-.048.011.079.079,0,0,1-.048.011.3.3,0,0,1-.138,0,.408.408,0,0,1-.212-.074.123.123,0,0,1-.048-.037,1.51,1.51,0,0,1-.233-1.013v-1.974l-.828-.037.716.111-1.788.027C256.572,284.411,256.508,286.581,256.508,287.791Z" transform="translate(1119.88 14316.486)" fill="#808122"/>
    <path id="Path_5381" data-name="Path 5381" d="M258.723,260.991a.921.921,0,0,0,.249.371,1.031,1.031,0,0,0,.2.138.673.673,0,0,0,.223.048.888.888,0,0,0,.382-.027,1.027,1.027,0,0,0,.249-.111.166.166,0,0,0,.064-.037.313.313,0,0,0-.064.027.853.853,0,0,0-.111.027.727.727,0,0,1-.149.027c-.048.011-.111.011-.175.027a.747.747,0,0,1-.186-.027.6.6,0,0,1-.186-.048.985.985,0,0,1-.175-.111.868.868,0,0,1-.233-.334,1.17,1.17,0,0,1-.122-.334c-.027-.111-.048-.2-.064-.26a.4.4,0,0,0-.011-.1,2.274,2.274,0,0,0,.011.355A1.3,1.3,0,0,0,258.723,260.991Z" transform="translate(1119.207 14323.112)" fill="#808122"/>
    <path id="Path_5382" data-name="Path 5382" d="M260.126,263.084a2.177,2.177,0,0,1-.706.186h.8a.145.145,0,0,0,.149-.149v-.308A.626.626,0,0,1,260.126,263.084Z" transform="translate(1118.948 14322.389)" fill="#808122"/>
    <path id="Path_5383" data-name="Path 5383" d="M262.472,288.267a2.11,2.11,0,0,1-.355.631,4.632,4.632,0,0,1-.467.493,3.9,3.9,0,0,1-.483.382,8.482,8.482,0,0,1-.791.5c-.037.027-.074.048-.111.074a1.294,1.294,0,0,1,.122-.064,6.392,6.392,0,0,0,.812-.467,4.437,4.437,0,0,0,.493-.371,3.175,3.175,0,0,0,.493-.5,2.375,2.375,0,0,0,.371-.653,1.944,1.944,0,0,0,.074-.382v-.393c-.011-.5-.011-1.024-.027-1.507,0-.249-.011-.467-.011-.69s-.011-.43-.027-.631c-.011-.382-.027-.706-.027-.923s-.027-.355-.027-.355v1.279c0,.78,0,1.8.011,2.828v.382A1.251,1.251,0,0,1,262.472,288.267Z" transform="translate(1118.552 14316.541)" fill="#808122"/>
    <path id="Path_5384" data-name="Path 5384" d="M260.707,259.557a.683.683,0,0,1-.1-.011,1.606,1.606,0,0,1-.244-.027c-.212-.011-.493-.011-.775-.011s-.557,0-.764.011c-.1.011-.186.027-.244.027a.051.051,0,1,0,0,.021c.064,0,.149.011.244.011.212.011.493.027.764.027s.568-.011.775-.027c.1,0,.186-.011.244-.011A.683.683,0,0,1,260.707,259.557Z" transform="translate(1119.205 14323.327)" fill="#808122"/>
    <path id="Path_5385" data-name="Path 5385" d="M259.99,286.091s.345.111.345-.419v-3.008h-.345Z" transform="translate(1118.781 14316.753)" fill="#808122"/>
    <path id="Path_5386" data-name="Path 5386" d="M245.694,279.452c-.037-.011-.085-.027-.122.064a.647.647,0,0,1,.281.159.747.747,0,0,1,.027-.186C245.816,279.478,245.752,279.468,245.694,279.452Z" transform="translate(1123.981 14317.667)" fill="#808122"/>
    <path id="Path_5387" data-name="Path 5387" d="M238.262,279.455a.172.172,0,0,0-.085.064c.027-.011.064-.011.1-.027A.079.079,0,0,1,238.262,279.455Z" transform="translate(1126.658 14317.664)" fill="#808122"/>
    <path id="Path_5388" data-name="Path 5388" d="M236.062,280.788c-.027.037-.037.064-.064.1a1.821,1.821,0,0,1,.175-.175C236.126,280.7,236.089,280.74,236.062,280.788Z" transform="translate(1127.439 14317.307)" fill="#808122"/>
    <path id="Path_5389" data-name="Path 5389" d="M234.909,264.933l-.281.409h.037c.111-.122.212-.249.308-.371C234.946,264.959,234.936,264.943,234.909,264.933Z" transform="translate(1127.923 14321.787)" fill="#808122"/>
    <path id="Path_5390" data-name="Path 5390" d="M236.729,286.741a.616.616,0,0,1-.483-.1c-.5-.271-1.024-.493-1.517-.8-.122-.085-.249-.011-.382-.011a.362.362,0,0,0-.1.011c-.212.074-.345-.074-.446-.271-.011-.011-.027-.027-.027-.037.011-.175-.085-.175-.175-.186-.212-.048-.409-.1-.615-.149a2.035,2.035,0,0,1-.111.212,6.154,6.154,0,0,0,.6.52.9.9,0,0,0,.838.149c.122-.037.244-.064.371-.1.085-.011.2,0,.212.122.011.26.159.371.271.541a2.343,2.343,0,0,0,.186.281.353.353,0,0,0,.149.1c.2.048.393.111.594.175.037.011.074.027.085.064.122.2.233.382.355.594-.122.085-.223.159-.334.233-.027.011-.048.027-.074.011-.186-.111-.271.1-.393.2a4.663,4.663,0,0,0,.6,1.125c.138.149.249.334.371.493.037.048.074.1.122.111.409.111.8.233,1.2.345a2.408,2.408,0,0,0,.334.048,3,3,0,0,1,.753.1c.249-.011.493,0,.727.011a3.56,3.56,0,0,1,.812-.111q.167-.016.334-.048c.393-.111.8-.233,1.2-.345.048-.011.085-.064.122-.111.122-.159.233-.345.371-.493a4.648,4.648,0,0,0,.6-1.125c-.122-.1-.212-.308-.393-.2a.093.093,0,0,1-.074-.011c-.1-.074-.212-.149-.318-.233.111-.212.233-.393.345-.594.011-.037.048-.048.085-.064.2-.064.393-.122.594-.175a.353.353,0,0,0,.149-.1c.064-.1.138-.186.2-.281.1-.175.244-.281.271-.541,0-.122.111-.138.2-.122.122.037.249.064.382.1a.883.883,0,0,0,.828-.149,4.991,4.991,0,0,0,.6-.52,2.041,2.041,0,0,1-.111-.212c-.212.048-.409.1-.615.149-.085.011-.186.011-.175.186,0,.011-.011.027-.011.037-.111.2-.244.345-.456.271a.294.294,0,0,0-.1-.011c-.138,0-.26-.074-.382.011-.493.308-1.013.531-1.517.8a.634.634,0,0,1-.483.1,2.94,2.94,0,0,0-.578-.027c.037-.122.074-.212.1-.308a2.269,2.269,0,0,1-.8.3c-.085.027-.149-.048-.212-.085a.192.192,0,0,0-.2-.037,1.862,1.862,0,0,1-.9.074c-.085,0-.122-.085-.175-.149-.011-.011-.011-.027-.027-.027s-.011.011-.027.027c-.048.064-.085.149-.175.149a1.861,1.861,0,0,1-.9-.074.189.189,0,0,0-.2.037c-.064.037-.122.111-.2.085a2,2,0,0,1-.812-.308c.027.1.064.2.1.318A2.977,2.977,0,0,0,236.729,286.741Z" transform="translate(1127.791 14316.033)" fill="#808122"/>
    <path id="Path_5391" data-name="Path 5391" d="M238.011,279.544a.843.843,0,0,0-.111.027c-.064.011-.122.027-.186.037s-.111.064-.111.149a.327.327,0,0,1-.011.1c.138,0,.233-.111.334-.212.011-.027.037-.037.048-.064A.243.243,0,0,1,238.011,279.544Z" transform="translate(1126.85 14317.639)" fill="#808122"/>
    <path id="Path_5392" data-name="Path 5392" d="M217.213,283.807a3.178,3.178,0,0,0-3-3.369c-1.454-.111-2.987,1.417-2.971,3.38a3.259,3.259,0,0,0,2.961,3.343A3.206,3.206,0,0,0,217.213,283.807Zm-.971-.456h.011a.181.181,0,0,1,.074-.011.284.284,0,0,1,.138.037.468.468,0,0,1,0,.849.257.257,0,0,1-.138.037.349.349,0,0,1-.159-.037.458.458,0,0,1-.223-.318.174.174,0,0,1-.027-.111v-.011a.307.307,0,0,1,.037-.159.43.43,0,0,1,.212-.249A.127.127,0,0,1,216.242,283.351ZM214.194,281a.264.264,0,0,1,.186.064.1.1,0,0,1,.085.064.157.157,0,0,1,.064.085.376.376,0,0,1,.085.26.349.349,0,0,1-.037.159.089.089,0,0,1-.027.074.344.344,0,0,1-.1.111.2.2,0,0,1-.074.048.292.292,0,0,1-.186.064.441.441,0,0,1-.409-.456A.45.45,0,0,1,214.194,281Zm-2,3.268a.437.437,0,0,1-.409-.467.416.416,0,0,1,.048-.212.291.291,0,0,1,.064-.111c.011-.011.037-.037.048-.037a.01.01,0,0,0,.011-.011c.011,0,.027-.011.037-.011a.177.177,0,0,1,.1-.048.133.133,0,0,1,.1-.027.247.247,0,0,1,.149.037.5.5,0,0,1,.111.1c.011-.011.027,0,.027.027a.01.01,0,0,1,.011.011c.011,0,.027.026.037.048,0,0,.027.011.011.027a.345.345,0,0,1,.064.212A.443.443,0,0,1,212.193,284.264Zm.764-.467a1.245,1.245,0,1,1,1.236,1.4A1.315,1.315,0,0,1,212.957,283.8Zm.886,2.356a.7.7,0,0,1,.011-.149.434.434,0,0,1,.074-.2c.027-.037.048-.074.085-.085a.288.288,0,0,1,.212-.085.445.445,0,0,1,.409.467.367.367,0,0,1-.1.271.39.39,0,0,1-.085.1c-.027.027-.037.037-.064.037a.246.246,0,0,1-.159.048.334.334,0,0,1-.271-.138A.544.544,0,0,1,213.843,286.153Z" transform="translate(1136.064 14317.387)" fill="#808122"/>
    <path id="Path_5393" data-name="Path 5393" d="M219.666,209.465H183.5a18.721,18.721,0,0,0-18.693,18.693v36.175A18.711,18.711,0,0,0,183.5,283.026h36.165a18.7,18.7,0,0,0,17.9-13.339.718.718,0,0,0,.048-.175,18.407,18.407,0,0,0,.738-5.184V228.153a18.712,18.712,0,0,0-18.687-18.687Zm18.226,18.693v36.175a17.857,17.857,0,0,1-.753,5.157,1.171,1.171,0,0,1-.064.223,18.253,18.253,0,0,1-17.409,12.846H183.5a18.261,18.261,0,0,1-17.446-12.941c0-.011,0-.027-.011-.027a18.5,18.5,0,0,1-.764-5.258V228.158a18.25,18.25,0,0,1,18.226-18.226h36.165a18.241,18.241,0,0,1,18.22,18.226Z" transform="translate(1149.379 14337.534)" fill="#808122"/>
    <path id="Path_5394" data-name="Path 5394" d="M199.469,283.8a3,3,0,1,0-3.014,3.353A3.226,3.226,0,0,0,199.469,283.8Zm-3.061-2.812a.264.264,0,0,1,.186.064c.2.027.281.249.271.43a.425.425,0,0,1-.3.393.281.281,0,0,1-.1.027c-.011.011-.037.011-.064.011a.441.441,0,0,1-.409-.456A.453.453,0,0,1,196.408,280.986Zm-1.613,2.961a.242.242,0,0,1-.085.138.339.339,0,0,1-.3.175.445.445,0,0,1-.409-.467.45.45,0,0,1,.149-.334.314.314,0,0,1,.26-.122.325.325,0,0,1,.233.1c.111.037.2.122.186.334A.469.469,0,0,1,194.795,283.947Zm2.069,2.181c0,.011,0,.011-.011.027a.281.281,0,0,1-.074.2.069.069,0,0,1-.037.064.561.561,0,0,1-.122.1c-.027.011-.048.027-.085.011a.1.1,0,0,1-.085.026.431.431,0,0,1-.409-.456.441.441,0,0,1,.409-.467c.037,0,.064,0,.085.027.011-.011.027,0,.027,0a.1.1,0,0,1,.085.037.159.159,0,0,1,.074.064.2.2,0,0,1,.064.074.156.156,0,0,1,.048.122c.011.011.027.011.011.027a.19.19,0,0,1,.027.122v.027Zm.679-1.825a1.084,1.084,0,0,1-.1.223.87.87,0,0,1-.138.2,1.116,1.116,0,0,1-.9.456,1.4,1.4,0,0,1,0-2.775,1.118,1.118,0,0,1,.727.271,1.419,1.419,0,0,1,.5,1.109A1.069,1.069,0,0,1,197.543,284.3Zm.594-.515a.438.438,0,0,1,.409-.456.443.443,0,0,1,.419.456.349.349,0,0,1-.048.2.046.046,0,0,1-.027.048.377.377,0,0,1-.345.223A.445.445,0,0,1,198.137,283.788Z" transform="translate(1142.487 14317.396)" fill="#808122"/>
  </g>
</svg>
