<svg xmlns="http://www.w3.org/2000/svg" width="136.957" height="71.885" viewBox="0 0 136.957 71.885">
  <g id="الشعار-01" transform="translate(-24.652 -209.465)">
    <g id="Group_3187" data-name="Group 3187" transform="translate(24.652 273.212)">
      <path id="Path_5299" data-name="Path 5299" d="M37.644,384.088h-.7v3.194h-1.27v-7.873h1.27v3.067h.713l1.176-3.067h1.412l-1.5,3.786,1.543,3.994-1.373.207Z" transform="translate(-35.669 -379.261)" fill="#808122"/>
      <path id="Path_5300" data-name="Path 5300" d="M53.91,379.157v7.979H52.64v-3.194h-2v3.194h-1.27v-7.768l1.27-.208v3.161h2v-2.953Z" transform="translate(-44.218 -379.104)" fill="#808122"/>
      <path id="Path_5301" data-name="Path 5301" d="M66.47,385.581h-2.05l-.337,1.457H62.773l1.933-7.814,1.515-.207,1.875,7.919-1.279.207Zm-.359-1.619-.655-2.913-.669,2.913Z" transform="translate(-52.583 -379.016)" fill="#808122"/>
      <path id="Path_5302" data-name="Path 5302" d="M78.254,379.364l1.27-.208v6.358h2.337L82,387.136h-3.75v-7.771Z" transform="translate(-62.241 -379.104)" fill="#808122"/>
      <path id="Path_5303" data-name="Path 5303" d="M90.19,381.039H88.713v-1.623h4.234l-.131,1.623H91.471V387.3H90.193v-6.259Z" transform="translate(-68.77 -379.266)" fill="#808122"/>
      <path id="Path_5304" data-name="Path 5304" d="M103.843,385.581h-2.05l-.337,1.457h-1.309l1.933-7.814,1.515-.207,1.875,7.919-1.279.207Zm-.359-1.619-.655-2.913-.669,2.913Z" transform="translate(-76.625 -379.016)" fill="#808122"/>
      <path id="Path_5305" data-name="Path 5305" d="M120.173,379.157v7.979H118.9v-3.194h-2v3.194h-1.27v-7.768l1.27-.208v3.161h2v-2.953Z" transform="translate(-86.457 -379.104)" fill="#808122"/>
      <path id="Path_5306" data-name="Path 5306" d="M138.255,383.169V386.7a3.018,3.018,0,0,1-1.786.532c-1.61,0-2.588-1.6-2.588-4.047s.978-4.047,2.588-4.047a2.485,2.485,0,0,1,1.66.568L138,381.46a1.893,1.893,0,0,0-1.412-.706c-.825,0-1.4.808-1.4,2.427s.574,2.427,1.4,2.427a1.066,1.066,0,0,0,.457-.093v-2.139Z" transform="translate(-98.046 -379.09)" fill="#16addc"/>
      <path id="Path_5307" data-name="Path 5307" d="M147.933,379.416h3.594v1.623H149.2v1.436h2.042l.134,1.623H149.2v1.577h2.4V387.3H147.93v-7.881Z" transform="translate(-106.963 -379.266)" fill="#16addc"/>
      <path id="Path_5308" data-name="Path 5308" d="M161.066,387.14h-1.148v-7.874h1.242l2.212,4.77v-4.665l1.148-.208v7.979h-1.242l-2.212-4.863Z" transform="translate(-114.585 -379.108)" fill="#16addc"/>
      <path id="Path_5309" data-name="Path 5309" d="M174.925,379.416h3.594v1.623H176.2v1.436h2.042l.134,1.623H176.2v1.577h2.4V387.3h-3.669v-7.881Z" transform="translate(-124.105 -379.266)" fill="#16addc"/>
      <path id="Path_5310" data-name="Path 5310" d="M188.871,384.527h-.682v2.755h-1.27v-7.873h2.243c1.279,0,1.925.845,1.925,2.559a2.465,2.465,0,0,1-.964,2.234l1.2,2.986-1.309.207Zm.184-1.621c.5,0,.727-.313.727-.938s-.228-.938-.727-.938h-.866v1.876Z" transform="translate(-131.732 -379.261)" fill="#16addc"/>
      <path id="Path_5311" data-name="Path 5311" d="M202.648,385.581H200.6l-.337,1.457h-1.309l1.933-7.814,1.515-.207,1.875,7.919-1.279.207Zm-.359-1.619-.655-2.913-.669,2.913Z" transform="translate(-139.387 -379.016)" fill="#16addc"/>
      <path id="Path_5312" data-name="Path 5312" d="M214.432,379.364l1.27-.208v6.358h2.337l.139,1.621h-3.75v-7.771Z" transform="translate(-149.196 -379.104)" fill="#16addc"/>
      <path id="Path_5313" data-name="Path 5313" d="M232.109,387.228c-1.616,0-2.66-1.6-2.66-4.047s1.045-4.047,2.719-4.047a2.517,2.517,0,0,1,1.66.568l-.2,1.757a1.864,1.864,0,0,0-1.4-.706c-.889,0-1.471.808-1.471,2.427s.579,2.427,1.4,2.427a2.281,2.281,0,0,0,1.61-.718v1.769A2.517,2.517,0,0,1,232.109,387.228Z" transform="translate(-158.744 -379.09)" fill="#16addc"/>
      <path id="Path_5314" data-name="Path 5314" d="M242.5,383.181c0-2.2.933-4.047,2.7-4.047s2.7,1.851,2.7,4.047c0,2.22-.933,4.047-2.7,4.047S242.5,385.4,242.5,383.181Zm1.3,0c0,1.421.462,2.427,1.4,2.427s1.4-1.006,1.4-2.427-.457-2.427-1.4-2.427S243.805,381.757,243.805,383.181Z" transform="translate(-167.053 -379.09)" fill="#16addc"/>
      <path id="Path_5315" data-name="Path 5315" d="M260.086,387.14h-1.148v-7.874h1.242l2.212,4.77v-4.665l1.148-.208v7.979H262.3l-2.212-4.863Z" transform="translate(-177.478 -379.108)" fill="#16addc"/>
      <path id="Path_5316" data-name="Path 5316" d="M274.278,381.039H272.8v-1.623h4.234l-.131,1.623h-1.346V387.3h-1.279v-6.259Z" transform="translate(-186.276 -379.266)" fill="#16addc"/>
      <path id="Path_5317" data-name="Path 5317" d="M287.639,384.527h-.683v2.755h-1.27v-7.873h2.243c1.279,0,1.925.845,1.925,2.559a2.465,2.465,0,0,1-.964,2.234l1.2,2.986-1.309.207Zm.184-1.621c.5,0,.727-.313.727-.938s-.228-.938-.727-.938h-.866v1.876Z" transform="translate(-194.462 -379.261)" fill="#16addc"/>
      <path id="Path_5318" data-name="Path 5318" d="M301.416,385.581h-2.05l-.337,1.457h-1.309l1.933-7.814,1.513-.207,1.875,7.919-1.279.207Zm-.359-1.619-.655-2.913-.669,2.913Z" transform="translate(-202.125 -379.016)" fill="#16addc"/>
      <path id="Path_5319" data-name="Path 5319" d="M315.162,387.228c-1.616,0-2.66-1.6-2.66-4.047s1.045-4.047,2.719-4.047a2.517,2.517,0,0,1,1.66.568l-.2,1.757a1.864,1.864,0,0,0-1.4-.706c-.889,0-1.471.808-1.471,2.427s.579,2.427,1.4,2.427a2.281,2.281,0,0,0,1.61-.718v1.769A2.517,2.517,0,0,1,315.162,387.228Z" transform="translate(-211.493 -379.09)" fill="#16addc"/>
      <path id="Path_5320" data-name="Path 5320" d="M326.589,381.039h-1.476v-1.623h4.234l-.131,1.623H327.87V387.3h-1.279v-6.259Z" transform="translate(-219.499 -379.266)" fill="#16addc"/>
      <path id="Path_5321" data-name="Path 5321" d="M337.99,387.14v-7.768l1.27-.208v7.979h-1.27Z" transform="translate(-228.745 -379.108)" fill="#16addc"/>
      <path id="Path_5322" data-name="Path 5322" d="M345.287,387.14H344.14v-7.874h1.242l2.212,4.77v-4.665l1.148-.208v7.979H347.5l-2.212-4.863Z" transform="translate(-232.197 -379.108)" fill="#16addc"/>
      <path id="Path_5323" data-name="Path 5323" d="M362.828,383.169V386.7a3.018,3.018,0,0,1-1.786.532c-1.61,0-2.588-1.6-2.588-4.047s.978-4.047,2.588-4.047a2.484,2.484,0,0,1,1.66.568l-.134,1.757a1.892,1.892,0,0,0-1.412-.706c-.822,0-1.4.808-1.4,2.427s.574,2.427,1.4,2.427a1.066,1.066,0,0,0,.457-.093v-2.139Z" transform="translate(-241.13 -379.09)" fill="#16addc"/>
      <path id="Path_5324" data-name="Path 5324" d="M376.606,379.416H380.2v1.623h-2.323v1.436h2.042l.131,1.623h-2.176v1.577h2.4V387.3H376.6v-7.881Z" transform="translate(-252.453 -379.266)" fill="#16addc"/>
      <path id="Path_5325" data-name="Path 5325" d="M389.74,385.6c.426,0,.861-.105.861-.67,0-1.133-2.566-.649-2.566-3.47,0-1.664.883-2.337,1.858-2.337a3.53,3.53,0,0,1,1.9.568l-.139,1.757a2.694,2.694,0,0,0-1.574-.706c-.412,0-.735.081-.735.613,0,1.111,2.557.637,2.557,3.389,0,1.838-.986,2.475-1.978,2.475a3.115,3.115,0,0,1-1.9-.568v-1.769A2.613,2.613,0,0,0,389.74,385.6Z" transform="translate(-259.578 -379.085)" fill="#16addc"/>
      <path id="Path_5326" data-name="Path 5326" d="M400.883,381.039h-1.476v-1.623h4.234l-.131,1.623h-1.346V387.3h-1.279v-6.259Z" transform="translate(-266.685 -379.266)" fill="#16addc"/>
    </g>
    <g id="Group_3188" data-name="Group 3188" transform="translate(24.652 254.762)">
      <path id="Path_5327" data-name="Path 5327" d="M43.068,339.832v1.855c0,.078-.042.142-.1.142a2.17,2.17,0,0,1-1.507-.476,3.153,3.153,0,0,1-1.733.593c-1.465,0-2.507-1.415-2.507-3.245s1.042-3.388,2.507-3.388a2.658,2.658,0,0,1,1.042.245v-.7l1.61-.245.011,4.287c0,.566.206.8.577.8C43.029,339.7,43.068,339.754,43.068,339.832ZM39,334.424l-1.073-1.34,1.061-1.326.816.992.805-.992,1.073,1.326-1.053,1.34-.825-1ZM40.8,339.74a5.009,5.009,0,0,1-.019-.554l-.011-1.66a2.424,2.424,0,0,0-.958-.231c-.66,0-1.095.566-1.095,1.365a1.177,1.177,0,0,0,1.011,1.3A2.268,2.268,0,0,0,40.8,339.74Z" transform="translate(-37.218 -331.076)" fill="#16addc"/>
      <path id="Path_5328" data-name="Path 5328" d="M57.656,344.012c0,2.137-1.134,3.516-2.95,3.516H52.332c-.072,0-.1-.039-.1-.142V345.53c0-.078.042-.128.1-.128h.641a4.224,4.224,0,0,1-.309-1.507c0-1.752,1.061-3,2.446-3C56.583,340.9,57.656,342.209,57.656,344.012ZM56.046,344a1.061,1.061,0,0,0-.958-1.184,1.146,1.146,0,0,0-.992,1.262,3.661,3.661,0,0,0,.29,1.326h.332A1.27,1.27,0,0,0,56.046,344Z" transform="translate(-46.585 -336.777)" fill="#16addc"/>
      <path id="Path_5329" data-name="Path 5329" d="M69.63,340.206l-.011-6.438,1.61-.231.011,5.948c0,.914.267,1.326.855,1.326.061,0,.1.05.1.128l.011,1.855c0,.078-.042.142-.1.142C70.447,342.936,69.63,342.022,69.63,340.206Z" transform="translate(-57.437 -332.186)" fill="#16addc"/>
      <path id="Path_5330" data-name="Path 5330" d="M82.289,345.005v1.855c0,.078-.042.142-.1.142a4.361,4.361,0,0,1-2.775-.836,5.524,5.524,0,0,1-3.354.836.134.134,0,0,1-.1-.142v-1.855c0-.078.042-.128.1-.128a10.9,10.9,0,0,0,1.4-.078,14.44,14.44,0,0,1-1.134-2.3l.527-1.582a4.859,4.859,0,0,1,2.538-.864,2.325,2.325,0,0,1,2.424,2.471,3.584,3.584,0,0,1-.866,2.265,6.881,6.881,0,0,0,1.237.089C82.25,344.877,82.289,344.927,82.289,345.005Zm-4.507-2.613a8.733,8.733,0,0,0,1.279,2.382,1.934,1.934,0,0,0,1.29-1.6,1.12,1.12,0,0,0-1.176-1.159A2.912,2.912,0,0,0,77.782,342.392Z" transform="translate(-61.39 -336.25)" fill="#16addc"/>
      <path id="Path_5331" data-name="Path 5331" d="M92.366,342.794l.011-1.855c0-.078.042-.128.1-.128.588,0,.855-.412.855-1.326l.011-5.716,1.61-.231-.011,6.669c0,1.816-.816,2.73-2.477,2.73C92.408,342.936,92.366,342.872,92.366,342.794Z" transform="translate(-71.632 -332.186)" fill="#16addc"/>
      <path id="Path_5332" data-name="Path 5332" d="M103.117,333.768l1.61-.231v9.4h-1.61Z" transform="translate(-77.853 -332.186)" fill="#16addc"/>
      <path id="Path_5333" data-name="Path 5333" d="M123.447,337.967v3.825c0,1.752-.805,2.677-2.415,2.7h-2.7c-1.7,0-2.568-.967-2.568-2.911a13.084,13.084,0,0,1,.195-2.087l1.382.206a11.413,11.413,0,0,0-.1,1.262c0,.978.465,1.4,1.5,1.4h2.248c.588,0,.866-.4.866-1.312l-.011-2.844Zm-4.714.733-1.073-1.34,1.061-1.326.816.992.805-.992,1.073,1.326-1.053,1.34-.825-1Z" transform="translate(-87.013 -333.744)" fill="#16addc"/>
      <path id="Path_5334" data-name="Path 5334" d="M143.791,333.537l-.011,6.669c0,1.816-.816,2.73-2.477,2.73h-3.251l-.237-2.126h1.775l-.794-5.073,1.58-.5.713,5.574h.228c.588,0,.855-.412.855-1.326l.011-5.716Z" transform="translate(-100.984 -332.186)" fill="#16addc"/>
      <path id="Path_5335" data-name="Path 5335" d="M161.594,344.389v3.025c0,2.229-1.722,3.05-4.24,3.05l-.164-1.635c1.9,0,2.744-.387,2.8-1.4a2.087,2.087,0,0,1-.95.27c-1.412,0-2.393-1.262-2.393-3.206,0-1.905,1.114-3.321,2.538-3.321C160.563,341.171,161.594,342.394,161.594,344.389Zm-2.412,1.3a3.358,3.358,0,0,0,.816-.128v-1.031c0-.836-.382-1.326-.939-1.326-.515,0-.969.476-.969,1.223C158.086,345.277,158.552,345.7,159.181,345.69Z" transform="translate(-112.91 -336.948)" fill="#16addc"/>
      <path id="Path_5336" data-name="Path 5336" d="M173.111,340.206l-.011-6.438,1.61-.231.011,5.948c0,.914.267,1.326.855,1.326.061,0,.1.05.1.128l.011,1.855c0,.078-.042.142-.1.142C173.927,342.936,173.111,342.022,173.111,340.206Z" transform="translate(-123.316 -332.186)" fill="#16addc"/>
      <path id="Path_5337" data-name="Path 5337" d="M185.357,339.7v1.855c0,.078-.042.142-.1.142a7.057,7.057,0,0,1-2.713-.643,6.7,6.7,0,0,1-3,.643.134.134,0,0,1-.1-.142V339.7c0-.078.042-.128.1-.128a9.016,9.016,0,0,0,1-.05,3.2,3.2,0,0,1-.454-1.685,2.489,2.489,0,0,1,2.332-2.769,2.567,2.567,0,0,1,2.373,2.78,3.08,3.08,0,0,1-.485,1.649,5.5,5.5,0,0,0,.95.078C185.318,339.574,185.357,339.624,185.357,339.7Zm-3.867-5.485-1.073-1.34,1.061-1.326.816.992.805-.992,1.073,1.326-1.053,1.34-.825-1Zm-.033,3.889a1.516,1.516,0,0,0,.886,1.379,1.6,1.6,0,0,0,.9-1.379,1.024,1.024,0,0,0-.908-1.12C181.8,336.986,181.457,337.5,181.457,338.106Z" transform="translate(-127.365 -330.946)" fill="#16addc"/>
      <path id="Path_5338" data-name="Path 5338" d="M200.772,345.542V347.4c0,.1-.031.142-.1.142h-2.424a2.7,2.7,0,0,1-1.805-.644,2.874,2.874,0,0,1-1.691.644c-.061,0-.1-.064-.1-.142v-1.855c0-.078.042-.128.1-.128a1.893,1.893,0,0,0,.744-.142,5.363,5.363,0,0,1-.145-1.248c0-1.788,1.061-3.115,2.549-3.115a2.694,2.694,0,0,1,2.424,2.922,6.882,6.882,0,0,1-.206,1.585h.557C200.731,345.414,200.772,345.464,200.772,345.542Zm-2.022-.128a7,7,0,0,0,.145-1.326,1.16,1.16,0,0,0-.981-1.276c-.557,0-.958.515-.958,1.209a1.249,1.249,0,0,0,1.279,1.39h.515Z" transform="translate(-137.01 -336.786)" fill="#16addc"/>
      <path id="Path_5339" data-name="Path 5339" d="M213.991,342.794c0,.078-.042.142-.1.142a2.31,2.31,0,0,1-1.97-.811,1.811,1.811,0,0,1-1.424.811c-.061,0-.1-.064-.1-.142v-1.855c0-.078.042-.128.1-.128a1.343,1.343,0,0,0,.928-.334,2.2,2.2,0,0,1-.011-.27l-.011-6.438,1.619-.231v5.948c0,.914.267,1.326.855,1.326.061,0,.1.05.1.128Z" transform="translate(-146.958 -332.186)" fill="#16addc"/>
      <path id="Path_5340" data-name="Path 5340" d="M219.438,342.794l.011-1.855c0-.078.042-.128.1-.128.588,0,.855-.412.855-1.326l.011-5.716,1.61-.231-.011,6.669c0,1.816-.816,2.73-2.477,2.73C219.48,342.936,219.438,342.872,219.438,342.794Z" transform="translate(-152.678 -332.186)" fill="#16addc"/>
      <path id="Path_5341" data-name="Path 5341" d="M240.619,344.576v1.855c0,.078-.042.142-.1.142a2.17,2.17,0,0,1-1.507-.476,3.153,3.153,0,0,1-1.733.593c-1.465,0-2.507-1.415-2.507-3.245s1.042-3.388,2.507-3.388a2.658,2.658,0,0,1,1.042.245v-.7l1.61-.245.011,4.287c0,.566.206.8.577.8C240.58,344.447,240.619,344.5,240.619,344.576Zm-2.268-.092a5.008,5.008,0,0,1-.02-.554l-.011-1.66a2.413,2.413,0,0,0-.958-.231c-.66,0-1.095.566-1.095,1.365a1.177,1.177,0,0,0,1.011,1.3A2.268,2.268,0,0,0,238.351,344.484Z" transform="translate(-162.438 -335.82)" fill="#808122"/>
      <path id="Path_5342" data-name="Path 5342" d="M259.756,340.946V342.8c0,.078-.042.142-.1.142a2.023,2.023,0,0,1-1.61-.864,2.308,2.308,0,0,1-1.981.864h-6.179c-.061,0-.1-.064-.1-.142v-1.855c.02-.078.061-.128.1-.128h.794v-7.042l1.619-.231v4.017c1.928-1.145,2.889-1.518,3.9-1.518,1.412,0,2.4,1.223,2.373,3.039l-.019,1.159v.181a1.674,1.674,0,0,0,1.1.4C259.714,340.818,259.756,340.868,259.756,340.946Zm-2.805-1.674a1.09,1.09,0,0,0-1.114-1.173c-.847,0-1.3.181-3.538,1.081v1.635h3.786c.546,0,.866-.387.866-1.07v-.474Z" transform="translate(-172.021 -332.19)" fill="#808122"/>
      <path id="Path_5343" data-name="Path 5343" d="M279.364,342.794c0,.078-.042.142-.1.142a2.31,2.31,0,0,1-1.97-.811,1.811,1.811,0,0,1-1.424.811c-.061,0-.1-.064-.1-.142v-1.855c0-.078.042-.128.1-.128a1.343,1.343,0,0,0,.928-.334,2.187,2.187,0,0,1-.011-.27l-.011-6.438,1.619-.231v5.948c0,.914.267,1.326.855,1.326.061,0,.1.05.1.128Z" transform="translate(-188.385 -332.186)" fill="#808122"/>
      <path id="Path_5344" data-name="Path 5344" d="M290.838,338.826l-.32,2.048a8.64,8.64,0,0,1-5.591,1.892.132.132,0,0,1-.114-.142v-1.855a.117.117,0,0,1,.114-.128,8.828,8.828,0,0,0,4.259-.811c-1.382-1.173-1.931-1.518-2.621-1.518a3.981,3.981,0,0,0-.992.181l-.3-1.777a3.1,3.1,0,0,1,1.485-.437C287.67,336.277,288.453,336.753,290.838,338.826Zm-1.919-2.911-1.084-1.326,1.073-1.326,1.073,1.326Z" transform="translate(-194.162 -332.014)" fill="#808122"/>
      <path id="Path_5345" data-name="Path 5345" d="M313.513,339.832v1.855c0,.078-.042.142-.1.142a2.171,2.171,0,0,1-1.507-.476,3.153,3.153,0,0,1-1.733.593c-1.465,0-2.507-1.415-2.507-3.245s1.042-3.388,2.507-3.388a2.658,2.658,0,0,1,1.042.245v-.7l1.61-.245.011,4.287c0,.566.206.8.577.8C313.471,339.7,313.513,339.754,313.513,339.832Zm-4.076-5.407-1.073-1.34,1.061-1.326.816.992.805-.992,1.073,1.326-1.053,1.34-.825-1Zm1.805,5.315a5.016,5.016,0,0,1-.019-.554l-.011-1.66a2.413,2.413,0,0,0-.958-.231c-.66,0-1.095.566-1.095,1.365a1.177,1.177,0,0,0,1.011,1.3A2.261,2.261,0,0,0,311.243,339.74Z" transform="translate(-208.644 -331.076)" fill="#16addc"/>
      <path id="Path_5346" data-name="Path 5346" d="M332.67,345.713v1.855c0,.078-.042.142-.1.142a1.937,1.937,0,0,1-1.443-.657,1.986,1.986,0,0,1-1.588.657,2.626,2.626,0,0,1-1.713-.721,2.081,2.081,0,0,1-3.187-.039,2.3,2.3,0,0,1-1.858.76c-.061,0-.1-.064-.1-.142v-1.855c0-.078.042-.128.1-.128.577,0,.855-.4.855-1.312l-.011-1.546,1.619-.231v2.51c0,.128-.011.256-.02.387a1.7,1.7,0,0,0,.774.192c.588,0,.866-.4.866-1.312l-.011-1.546,1.61-.231v2.51c0,.142-.011.284-.02.426a2.056,2.056,0,0,0,.794.153c.557,0,.855-.451.855-1.312v-2.858l1.61-.231v3.825c0,.117-.011.231-.011.348a1.623,1.623,0,0,0,.878.231C332.628,345.585,332.67,345.635,332.67,345.713Z" transform="translate(-219.232 -336.957)" fill="#16addc"/>
      <path id="Path_5347" data-name="Path 5347" d="M357.733,341.176V345c0,1.752-.744,2.7-2.167,2.7a2.625,2.625,0,0,1-1.713-.721,2.081,2.081,0,0,1-3.187-.039,2.3,2.3,0,0,1-1.858.761c-.061,0-.1-.064-.1-.142v-1.855c0-.078.042-.128.1-.128.577,0,.855-.4.855-1.312l-.011-1.546,1.618-.231V345c0,.128-.011.256-.019.387a1.7,1.7,0,0,0,.774.192c.588,0,.866-.4.866-1.312l-.011-1.546,1.61-.231V345c0,.142-.011.284-.019.426a2.057,2.057,0,0,0,.794.153c.557,0,.855-.451.855-1.312V341.41Z" transform="translate(-235.045 -336.953)" fill="#16addc"/>
      <path id="Path_5348" data-name="Path 5348" d="M380.483,338.7v1.855c0,.078-.042.142-.1.142h-.5c-.145,2.009-1.825,2.769-4.229,2.769l-.164-1.635c1.722,0,2.58-.309,2.764-1.134h-.866c-1.465,0-2.446-1.276-2.446-3.206,0-1.905,1.114-3.321,2.538-3.321,1.382,0,2.415,1.223,2.415,3.218v1.184h.5C380.444,338.571,380.483,338.621,380.483,338.7Zm-1.947-5.407H376.12v-1.3h.515a1.56,1.56,0,0,1-.156-.683,1.233,1.233,0,0,1,1.187-1.365,1.6,1.6,0,0,1,.805.27v1.145a1.9,1.9,0,0,0-.7-.181.4.4,0,0,0-.454.412.728.728,0,0,0,.123.4h1.424Zm-1.011,5.393a7.6,7.6,0,0,0,.763-.053v-1.106c0-.836-.382-1.326-.939-1.326-.515,0-.969.476-.969,1.223A1.117,1.117,0,0,0,377.524,338.685Z" transform="translate(-251.413 -329.943)" fill="#16addc"/>
      <path id="Path_5349" data-name="Path 5349" d="M394.571,344.012c0,2.137-1.134,3.516-2.95,3.516h-2.374c-.072,0-.1-.039-.1-.142V345.53c0-.078.042-.128.1-.128h.641a4.224,4.224,0,0,1-.309-1.507c0-1.752,1.061-3,2.446-3C393.5,340.9,394.571,342.209,394.571,344.012Zm-1.61-.011a1.061,1.061,0,0,0-.958-1.184,1.144,1.144,0,0,0-.989,1.262,3.661,3.661,0,0,0,.29,1.326h.332A1.27,1.27,0,0,0,392.961,344Z" transform="translate(-260.281 -336.777)" fill="#16addc"/>
    </g>
    <g id="Group_3191" data-name="Group 3191" transform="translate(103.5 235.613)">
      <g id="Group_3189" data-name="Group 3189" transform="translate(0 0.167)">
        <path id="Path_5350" data-name="Path 5350" d="M238.222,279.475a.245.245,0,0,0-.053.014.135.135,0,0,1,.045-.033C238.217,279.463,238.222,279.469,238.222,279.475Z" transform="translate(-238.17 -279.455)" fill="#fff"/>
        <path id="Path_5351" data-name="Path 5351" d="M238.273,280.111a.115.115,0,0,0-.025.033c-.006-.014-.014-.033-.019-.045A.173.173,0,0,0,238.273,280.111Z" transform="translate(-238.207 -279.857)" fill="#fff"/>
        <path id="Path_5352" data-name="Path 5352" d="M238.826,286.791a.264.264,0,0,1-.064-.045h.045c.006.006.006.006.006.014A.149.149,0,0,1,238.826,286.791Z" transform="translate(-238.539 -284.005)" fill="#fff"/>
        <path id="Path_5353" data-name="Path 5353" d="M245.668,292.918Z" transform="translate(-242.849 -287.856)" fill="#fff"/>
        <path id="Path_5354" data-name="Path 5354" d="M246.052,279.488a.441.441,0,0,1-.059-.014c0-.006.006-.014.006-.02A.1.1,0,0,1,246.052,279.488Z" transform="translate(-243.052 -279.455)" fill="#fff"/>
        <path id="Path_5355" data-name="Path 5355" d="M245.444,286.746a.441.441,0,0,1-.072.053.216.216,0,0,1,.014-.039c0-.006,0-.006.006-.014Z" transform="translate(-242.664 -284.005)" fill="#fff"/>
      </g>
      <g id="Group_3190" data-name="Group 3190">
        <path id="Path_5356" data-name="Path 5356" d="M245.444,286.746a.441.441,0,0,1-.072.053.216.216,0,0,1,.014-.039c0-.006,0-.006.006-.014Z" transform="translate(-242.664 -283.838)" fill="#fff"/>
        <path id="Path_5357" data-name="Path 5357" d="M246.052,279.488a.441.441,0,0,1-.059-.014c0-.006.006-.014.006-.02A.1.1,0,0,1,246.052,279.488Z" transform="translate(-243.052 -279.288)" fill="#fff"/>
        <path id="Path_5358" data-name="Path 5358" d="M238.644,292.918Z" transform="translate(-238.465 -287.689)" fill="#fff"/>
        <path id="Path_5359" data-name="Path 5359" d="M238.222,279.475a.245.245,0,0,0-.053.014.135.135,0,0,1,.045-.033C238.217,279.463,238.222,279.469,238.222,279.475Z" transform="translate(-238.17 -279.288)" fill="#fff"/>
        <path id="Path_5360" data-name="Path 5360" d="M240.928,279.024c-.006.006-.014.014-.02.014a.521.521,0,0,1-.064-.014v-.014h.006A.242.242,0,0,1,240.928,279.024Z" transform="translate(-239.839 -279.01)" fill="#fff"/>
        <path id="Path_5361" data-name="Path 5361" d="M238.826,286.791a.264.264,0,0,1-.064-.045h.045c.006.006.006.006.006.014A.149.149,0,0,1,238.826,286.791Z" transform="translate(-238.539 -283.838)" fill="#fff"/>
      </g>
    </g>
    <path id="Path_5362" data-name="Path 5362" d="M166.339,293.447c-.039,0-.084-.006-.123-.006a.821.821,0,0,0,.117-.006C166.339,293.433,166.339,293.441,166.339,293.447Z" transform="translate(-86.709 -52.399)" fill="#fff"/>
    <path id="Path_5363" data-name="Path 5363" d="M266.009,293.313a.563.563,0,0,1-.025.092,1.563,1.563,0,0,1-.259.014.92.92,0,0,0,.033-.117A1.894,1.894,0,0,1,266.009,293.313Z" transform="translate(-152.813 -52.316)" fill="#fff"/>
    <g id="Group_3192" data-name="Group 3192" transform="translate(102.407 230.32)">
      <path id="Path_5364" data-name="Path 5364" d="M234.809,264.952c-.053.064-.1.131-.162.195h-.019l.148-.214C234.789,264.938,234.795,264.946,234.809,264.952Z" transform="translate(-234.628 -264.933)" fill="#fff"/>
      <path id="Path_5365" data-name="Path 5365" d="M238.08,279.544l-.02.02c-.006.014-.019.019-.025.033a.11.11,0,0,1-.014-.039A.452.452,0,0,1,238.08,279.544Z" transform="translate(-236.745 -274.05)" fill="#fff"/>
      <path id="Path_5366" data-name="Path 5366" d="M238.222,279.475a.245.245,0,0,0-.053.014.135.135,0,0,1,.045-.033C238.217,279.463,238.222,279.469,238.222,279.475Z" transform="translate(-236.838 -273.995)" fill="#fff"/>
      <path id="Path_5367" data-name="Path 5367" d="M238.273,280.111a.115.115,0,0,0-.025.033c-.006-.014-.014-.033-.019-.045A.173.173,0,0,0,238.273,280.111Z" transform="translate(-236.875 -274.397)" fill="#fff"/>
    </g>
    <path id="Path_5368" data-name="Path 5368" d="M168.284,293.518a8.953,8.953,0,0,0,8.5,6.162h18.988a8.944,8.944,0,0,0,8.485-6.109C192.314,294.011,180.229,294,168.284,293.518Z" transform="translate(-89.901 -52.451)" fill="#808122"/>
    <path id="Path_5369" data-name="Path 5369" d="M251.788,285.094l.006.006.006-.006Z" transform="translate(-143.539 -47.194)" fill="#808122"/>
    <path id="Path_5370" data-name="Path 5370" d="M245.379,286.8c.025-.014.045-.033.072-.053H245.4c-.006.006-.006.006-.006.014A.16.16,0,0,0,245.379,286.8Z" transform="translate(-139.286 -48.225)" fill="#808122"/>
    <path id="Path_5371" data-name="Path 5371" d="M176.052,211.755a8.952,8.952,0,0,0-8.953,8.953v11.725c.059.265,0,.518.045.8h1.4v1.808c.582,0,1.128.014,1.677-.006.206-.014.273-.3.123-.582a15.253,15.253,0,0,1-1.061-2.922,35.016,35.016,0,0,1-.889-4.619c-.072-.577-.175-1.148-.226-1.73a.478.478,0,0,1,.142-.446,7.786,7.786,0,0,1,2.268-1.524c.1-.053.206-.092.312-.142.156.064.128.22.142.357a39.846,39.846,0,0,0,1.251,7.185,16.312,16.312,0,0,0,1.451,3.582,1.71,1.71,0,0,1,.148.674c1.646,0,3.265.006,4.878,0,1,0,2-.02,3.006-.025a.324.324,0,0,0,.357-.187c.557-1.109,1.114-2.215,1.685-3.31.46-.894.875-1.819,1.393-2.683a.453.453,0,0,0-.006-.454,22.231,22.231,0,0,1-1.017-3.348.419.419,0,0,1-.025-.1c-.025-.111-.053-.214-.078-.323-.187-.777-.331-1.56-.5-2.41a8.643,8.643,0,0,1,1.872.44v-1.588h4.644a7.848,7.848,0,0,0-.465,1.226c-.148.7-.582.7-1.089.621a3.332,3.332,0,0,0,.39,2.332.53.53,0,0,1-.014.694,3.086,3.086,0,0,0-.292,1.607c-.025.557-.006,1.114-.006,1.671a1.9,1.9,0,0,0,.641,1.036c.111.045.156-.045.206-.117.206-.24.421-.474.61-.733a.238.238,0,0,1,.376-.059c.889.635,1.769,1.276,2.649,1.925.014.006.019.039.058.111-.156.187-.318.382-.479.577.148.078.293.156.426.226a.216.216,0,0,1,.142.167c0,.014.014.025.014.045a.3.3,0,0,0,.259.279.394.394,0,0,1,.156.1c.24.234.479.46.719.688a.117.117,0,0,1,.033.078c0,.072.006.142.006.214-.053-.006-.1-.053-.15-.072.014.084.02.167.033.245.006.045.039.045.064.059a1.892,1.892,0,0,1,.312.2.711.711,0,0,1,.22.421c-.025.033-.064-.014-.1.014a5.146,5.146,0,0,0,.429.6.446.446,0,0,0-.053.323c.014.064.02.117.072.131a.793.793,0,0,1,.351.292c.02.014.039.033.033.053a.613.613,0,0,0,.084.331c-.033-.006-.045-.033-.059-.058a3.749,3.749,0,0,0-.543-.616c-.123-.137-.111-.078-.072-.254a.742.742,0,0,0-.02-.343.119.119,0,0,0-.053-.078.854.854,0,0,1-.3-.46c0-.006-.006-.02-.006-.025.039-.24-.136-.245-.234-.371-.02.2-.117.162-.214.123s-.059-.148-.1-.215c.006-.006.006-.014.014-.014.033-.039.1-.006.111-.078a.551.551,0,0,0-.064-.24c-.025-.045-.045-.084-.072-.137.039-.033.078-.064.123-.1a.737.737,0,0,0-.123-.181,2.416,2.416,0,0,0-.479-.421c-.072-.053-.078.059-.137.064-.053-.176-.175-.137-.292-.187.078-.2-.025-.284-.142-.371a3.954,3.954,0,0,0-.376-.234.255.255,0,0,0-.176-.006c-.513.621-1.036,1.256-1.568,1.9-.758-.947-1.49-1.866-2.287-2.85v3.713h1.418v2.282c.265.014.524.025.783.045a3.1,3.1,0,0,1,.045.855h-.791c-.156.259.078.621-.156.763-.181.1-.435.039-.685.053v.7h-.83a6.873,6.873,0,0,0-.123-1.451,2.637,2.637,0,0,0-2.268-2.048,6.463,6.463,0,0,0-1.749.053,2.6,2.6,0,0,0-1.892,1.755c-.084.195,0,.5-.323.524s-.259-.3-.343-.5a2.571,2.571,0,0,0-2.137-1.819,7.884,7.884,0,0,0-1.917.025,2.614,2.614,0,0,0-2.092,2.165,6.035,6.035,0,0,0-.084,1.3h-.783c-.092-.131,0-.3-.064-.46-.078-.006-.176-.02-.312-.033v-2.176c0-.811-.167-.967-.875-.928-.552.033-1.081-.053-1.632-.053-.532,0-1.07.039-1.6.045-.983.006-1.964-.039-2.947-.014a1.365,1.365,0,0,0-.2.014v.3h.025c2.176,0,4.354.019,6.53,0,.318-.006.454.128.44.513-.025.738-.02,1.471,0,2.2.006.362-.111.5-.426.493-1.081-.014-2.156-.006-3.24-.006s-2.156-.006-3.232.006a.527.527,0,0,1-.1-.006v.4a8.957,8.957,0,0,0,.426,2.741q4.831-.2,9.692-.284a3.282,3.282,0,0,1-1.387-2.741,2.848,2.848,0,1,1,5.655,0,3.456,3.456,0,0,1-.187,1.134l-.234.532-.226.362-.415.46a1.571,1.571,0,0,1-.265.206c1.173-.02,2.351-.033,3.524-.033a3.318,3.318,0,0,1-1.276-2.663,2.848,2.848,0,1,1,5.655,0,3.508,3.508,0,0,1-.181,1.12.218.218,0,0,1-.025.064l-.167.39c-.025.053-.053.1-.084.156l-.187.3-.415.46a1.547,1.547,0,0,1-.2.162c1.925,0,3.856.02,5.778.045-.078-.1-.156-.195-.24-.284a.424.424,0,0,0-.111-.078c-.407-.156-.811-.318-1.212-.474-.025-.014-.053-.02-.078-.033a.691.691,0,0,1-.24-.181c-.092-.084-.167-.167-.259-.254a.118.118,0,0,1-.045-.084c0-.014-.006-.02-.006-.033-.014-.053-.025-.092-.033-.131v-.006a1,1,0,0,1,.039-.635.106.106,0,0,1,.053-.078c.265-.2.543-.357.822-.532.084-.059.187-.025.284-.053a.083.083,0,0,0,.064-.014,2.1,2.1,0,0,0-.014-.3.2.2,0,0,1,.039-.123,2.5,2.5,0,0,1,.518-.5c.064-.053.148-.039.22-.064a1.224,1.224,0,0,0,.181-.045.11.11,0,0,1,.033-.084,1.792,1.792,0,0,0,.245-.351,1.98,1.98,0,0,0,.131-.195.133.133,0,0,1,.084-.064c.053-.006.1-.025.148-.033a.326.326,0,0,0,.312-.265.121.121,0,0,1,.1-.084c.039-.006.072-.014.111-.02a1.189,1.189,0,0,1-.064-.279.942.942,0,0,0-.117-.284,3.081,3.081,0,0,1-.312-.939c-.014-.072-.039-.117-.1-.136-.187-.064-.245-.293-.331-.479-.072-.162-.156-.318-.226-.479a.247.247,0,0,0-.084-.092c-.078-.045-.156-.1-.234-.156a1.111,1.111,0,0,1-.4-.4c-.039-.058-.078-.092-.136-.084s-.092-.014-.136-.014a.2.2,0,0,1-.206-.137c-.025-.058-.064-.045-.1-.033l.44-.6a.005.005,0,0,0,.006.006.1.1,0,0,0,.1.014c.059-.039.1,0,.162.045a.815.815,0,0,1,.3.552c.006.084.045.117.1.1a.3.3,0,0,1,.245.1.732.732,0,0,0,.137.092.258.258,0,0,1,.117.162,1.7,1.7,0,0,0,.343.674.052.052,0,0,1,.025.033c.128.162.128.162.279.064a.209.209,0,0,0,.058-.033c0-.058-.039-.111-.033-.181.072.059.128.117.2.176a.09.09,0,0,0,.078.033.434.434,0,0,1,.3.123c-.092.142-.206.142-.337.025a1.167,1.167,0,0,0,.181.318,5.989,5.989,0,0,1,.518.674.438.438,0,0,1,.059.2c.033.284.033.284.234.421a.482.482,0,0,1,.111.078c-.025.111-.053.226-.072.351h-.006v.014a.533.533,0,0,1,.064.014c.111.02.214.039.318.059.039.006.039-.025.045-.059.025-.1.053-.2.072-.3a.11.11,0,0,1,.064-.078,2,2,0,0,0,.524-.273.9.9,0,0,1-.142.563c-.02.045-.072.025-.111.025a.121.121,0,0,0-.148.111c-.014.045-.045.078-.059.123-.064.226-.226.318-.362.446a.48.48,0,0,0,.111.039c.053.006.078.045.092.111a.276.276,0,0,0,.025.072.186.186,0,0,0,.025-.072c.014-.064.039-.1.092-.111a1.053,1.053,0,0,0,.376-.22c.014-.014.025-.02.033-.033a.5.5,0,0,1,.234-.22,1.688,1.688,0,0,1-.181-.078.672.672,0,0,1-.167-.117c.123-.02.245-.084.357.039.039.039.084.072.142.045-.053-.053-.1-.1-.162-.156a.152.152,0,0,1,.187-.045,2.319,2.319,0,0,0,.772.206.119.119,0,0,1,.1.084.323.323,0,0,0,.312.265c.053.006.1.025.148.033a.135.135,0,0,1,.084.064c.039.072.092.131.128.2a2.181,2.181,0,0,0,.245.351.111.111,0,0,1,.033.084.831.831,0,0,0,.187.045c.072.025.148.014.215.064a2.5,2.5,0,0,1,.518.5.163.163,0,0,1,.039.123,2.608,2.608,0,0,0-.014.3.083.083,0,0,0,.064.014c.1.025.2-.006.292.053.273.176.552.337.816.532a.124.124,0,0,1,.053.078.946.946,0,0,1,.039.635v.006a1.3,1.3,0,0,1-.033.131.071.071,0,0,1-.006.033.118.118,0,0,1-.045.084c-.084.084-.167.167-.259.254a.659.659,0,0,1-.24.181c-.025.014-.053.02-.072.033-.409.156-.811.318-1.217.474a.425.425,0,0,0-.111.078c-.111.123-.214.265-.318.4,1.237.02,2.468.058,3.705.1-.421-.245-1.1-.738-1.1-1.309,0-.777.059-2.326.059-2.34a.042.042,0,0,1,.02-.039c.006-.014.025-.014.039-.014l1.056.053v-7.449a.115.115,0,0,1-.064-.1v-.265a1.949,1.949,0,0,0-.181-.259.58.58,0,0,1-.181-.337V229.7a.053.053,0,0,1,.053-.053h1.281a.056.056,0,0,1,.058.053v.557a.58.58,0,0,1-.181.337,1.393,1.393,0,0,0-.181.259v.265a.115.115,0,0,1-.064.1v6.984h-.092v.206h.092v.259l1.056-.053a.046.046,0,0,1,.039.014.072.072,0,0,1,.014.039c.006.014.058,1.56.058,2.34,0,.591-.724,1.1-1.134,1.334.421.006.836.025,1.256.045A9.038,9.038,0,0,0,204,239.7V220.711a8.952,8.952,0,0,0-8.953-8.953H176.052Zm-6.661,21.606a13.587,13.587,0,0,1-1.173-1.872c-.078-.123-.137-.265-.215-.382a2.949,2.949,0,0,1-.421-1.839c.006-1.011-.092-2.022.006-3.039a1.541,1.541,0,0,1,.181-.655A38.846,38.846,0,0,0,169.391,233.361Zm7.243.092c-.694.273-1.407.5-2.092.783-.22.084-.312,0-.4-.176a20.108,20.108,0,0,1-1.7-4.555c-.332-1.329-.552-2.674-.752-4.028-.128-.869-.215-1.744-.318-2.619a21.353,21.353,0,0,1,2.571-.8,11.828,11.828,0,0,1,1.217-.265c.176-.02.206.033.234.2.167,1.251.323,2.5.532,3.744.167,1,.362,2,.621,2.981a24.59,24.59,0,0,0,1.379,4.159C177.489,233.069,177.068,233.283,176.634,233.453Zm7.093-8.625a27.785,27.785,0,0,0,1.036,3.44c.072.181.131.376.206.6a33.224,33.224,0,0,1-6.622,3.836,6.289,6.289,0,0,1-.6-1.446,28.759,28.759,0,0,1-.978-3.446c-.279-1.251-.518-2.507-.68-3.783-.084-.674-.176-1.354-.284-2.022-.045-.293.039-.382.284-.4a24.23,24.23,0,0,1,3.705-.123c1.042.064,2.078.2,3.117.357.176.025.245.131.279.318C183.339,223.06,183.515,223.948,183.726,224.829Zm10.976,8.992a.076.076,0,0,1-.053-.045c-.045-.111-.092-.214-.142-.323a.278.278,0,0,1,.117-.039c.019.006.025.02.025.039.014.092.045.142.117.137.033-.006.053.019.058.064.006.064.019.131.025.206C194.8,233.846,194.747,233.835,194.7,233.821Zm-1.362.538c-.078.006-.117-.039-.128-.137a.194.194,0,0,0-.084-.148l-.131-.131c.045-.033.084-.059.123-.092a.557.557,0,0,1,.078.137c.039.064.072.137.148.131.025,0,.039.014.045.053.006.064.02.131.025.2C193.387,234.367,193.36,234.359,193.34,234.359Zm1.73,1.989a.449.449,0,0,1-.156-.033.047.047,0,0,1-.039-.039,2.833,2.833,0,0,0-.2-.474c.072.033.128.064.187.092a.062.062,0,0,1,.033.059,1.244,1.244,0,0,0,.014.176c.053.014.1.025.156.045A.616.616,0,0,1,195.07,236.348Zm.254-1.619c-.084.1-.084.1-.162-.006-.033-.045-.072-.092-.111-.136C195.207,234.52,195.215,234.529,195.324,234.729Z" transform="translate(-89.16 -1.429)" fill="#808122"/>
    <path id="Path_5372" data-name="Path 5372" d="M237.62,282.588a.252.252,0,0,1,.2.014.249.249,0,0,0,.226.02,1.15,1.15,0,0,1,.724,0,.247.247,0,0,0,.226-.02.264.264,0,0,1,.2-.014.479.479,0,0,0,.259.02c.058-.006.123,0,.187,0,.02-.064.053-.111.117-.084a.074.074,0,0,0,.039-.014c.156-.084.312-.142.465-.206a.493.493,0,0,0,.123-.059c-.064-.137-.128-.265-.2-.4a.138.138,0,0,1-.033-.084c.006-.123.006-.254.006-.376a.076.076,0,0,1,.033-.072c.117-.072.22-.181.362-.156a.6.6,0,0,0,.1-.02c-.025-.064-.059-.117-.084-.181a1.085,1.085,0,0,0-.323-.46.065.065,0,0,1-.025-.053c.006-.059-.025-.092-.039-.137a2.15,2.15,0,0,0-.4.162c.033-.084.059-.148.084-.215a.113.113,0,0,0-.006-.111c-.006-.014-.014-.019-.019-.033a1.507,1.507,0,0,1-.187.045c-.1.025-.111.02-.131.148-.014.078-.039.1-.1.123a3.858,3.858,0,0,1-.485.123.419.419,0,0,0-.142.078.458.458,0,0,1-.111.064.351.351,0,0,0,.136.033.516.516,0,0,0,.426-.167c.078-.084.142-.078.24-.025a.675.675,0,0,1-.111.014.076.076,0,0,0-.064.045.475.475,0,0,1-.24.234c-.045.02-.084.064-.136.058-.111-.019-.226-.006-.337-.025-.064-.014-.136-.025-.2-.045a1.731,1.731,0,0,1-.2.045c-.111.02-.226.006-.337.025-.053.006-.092-.039-.136-.058a.464.464,0,0,1-.24-.234.084.084,0,0,0-.064-.045.508.508,0,0,1-.111-.014c.1-.053.162-.059.24.025a.52.52,0,0,0,.426.167.351.351,0,0,0,.136-.033.571.571,0,0,1-.111-.064.446.446,0,0,0-.142-.078c-.162-.033-.323-.072-.485-.123a.12.12,0,0,1-.092-.092,1.56,1.56,0,0,1-.2-.014.092.092,0,0,1-.092-.064l-.059-.117a.113.113,0,0,0-.006.111c.025.064.053.128.084.215a1.97,1.97,0,0,0-.4-.162c-.014.045-.045.078-.039.136a.079.079,0,0,1-.025.053,1.1,1.1,0,0,0-.323.46c-.025.064-.059.117-.084.181a.6.6,0,0,0,.1.02c.142-.025.245.084.362.156a.079.079,0,0,1,.033.072c0,.123.006.254.006.376a.2.2,0,0,1-.025.084c-.072.131-.137.259-.2.4a.49.49,0,0,0,.123.059,4.079,4.079,0,0,1,.465.206.11.11,0,0,0,.039.014c.064-.025.1.02.117.084.064,0,.123-.006.187,0A.462.462,0,0,0,237.62,282.588Zm1.334-.348c.078.02.137-.039.195-.092.033-.02.059-.039.1-.02a.362.362,0,0,0,.323-.084c-.014-.045-.019-.084-.033-.123-.014-.02-.006-.039.006-.059.078-.1.156-.111.253-.014-.111.072-.058.214-.1.323-.175.02-.351.078-.532.1-.078.006-.176,0-.176.156l-.014.014c-.072-.02-.142-.033-.22-.053C238.8,282.279,238.86,282.212,238.955,282.24Zm-1.844-.067c-.039-.111.014-.254-.1-.323.1-.1.176-.092.254.014a.054.054,0,0,1,.014.058.79.79,0,0,0-.039.123.362.362,0,0,0,.323.084c.039-.02.064,0,.1.019.058.053.117.111.2.092.1-.025.156.039.195.148-.078.02-.148.033-.22.053l-.014-.014c0-.156-.092-.148-.175-.156C237.459,282.251,237.283,282.193,237.111,282.173Z" transform="translate(-133.415 -44.087)" fill="#808122"/>
    <path id="Path_5373" data-name="Path 5373" d="M232.5,285.094h-.014l.006.006Z" transform="translate(-130.72 -47.194)" fill="#808122"/>
    <path id="Path_5374" data-name="Path 5374" d="M238.229,280.092c.006.014.014.033.019.045a.173.173,0,0,1,.025-.033A.075.075,0,0,1,238.229,280.092Z" transform="translate(-134.535 -44.073)" fill="#808122"/>
    <path id="Path_5375" data-name="Path 5375" d="M238.807,286.746h-.045a.2.2,0,0,0,.064.045.171.171,0,0,0-.014-.033C238.812,286.752,238.812,286.752,238.807,286.746Z" transform="translate(-134.891 -48.225)" fill="#808122"/>
    <path id="Path_5376" data-name="Path 5376" d="M246.007,279.455c0,.006-.006.014-.006.02a.451.451,0,0,1,.059.014A.124.124,0,0,0,246.007,279.455Z" transform="translate(-139.698 -43.675)" fill="#808122"/>
    <path id="Path_5377" data-name="Path 5377" d="M259.613,259.968h-.738a.083.083,0,0,0-.078.092c.033.181.131.577.446.577s.421-.4.446-.577A.075.075,0,0,0,259.613,259.968Z" transform="translate(-148.25 -31.515)" fill="#808122"/>
    <path id="Path_5378" data-name="Path 5378" d="M248.12,280.752c-.014-.025-.033-.045-.058-.039.033.033.064.059.092.092C248.139,280.785,248.134,280.772,248.12,280.752Z" transform="translate(-141.068 -44.46)" fill="#808122"/>
    <path id="Path_5379" data-name="Path 5379" d="M246.369,279.7a.171.171,0,0,1-.006-.053c0-.045-.02-.072-.059-.078a1.1,1.1,0,0,1-.148-.033.029.029,0,0,0,.014.019C246.227,279.623,246.285,279.7,246.369,279.7Z" transform="translate(-139.811 -43.726)" fill="#808122"/>
    <path id="Path_5380" data-name="Path 5380" d="M256.508,285.8c0,.577.783,1.089,1.139,1.29-.078-.053-.167-.117-.273-.2a4.738,4.738,0,0,1-.479-.421,1.383,1.383,0,0,1-.234-.292c-.014-.025-.025-.059-.039-.092v-.028l-.006-.025-.014-.045c-.006-.059-.014-.131-.014-.187s-.006-.123-.006-.187,0-.123,0-.181c0-.123,0-.24.006-.357.006-.234.02-.446.033-.635.014-.234.033-.415.039-.518,0,.1-.006.293-.014.524-.006.181-.006.4-.006.63,0,.117,0,.234.006.357,0,.059.006.117.006.181s.006.123.014.181.019.117.025.176l.014.045.006.025v.014c.014.025.025.053.039.078a1.218,1.218,0,0,0,.22.259,4.946,4.946,0,0,0,.485.39c.142.1.265.176.357.234v-1.7a.277.277,0,0,0,.072-.025.176.176,0,0,0,.033-.02c.014,0,.02-.014.025-.019s.02-.02.033-.033a.357.357,0,0,1-.045.02.178.178,0,0,1-.025.006.041.041,0,0,1-.025.006.159.159,0,0,1-.072,0,.214.214,0,0,1-.111-.039.065.065,0,0,1-.025-.02.793.793,0,0,1-.123-.532v-1.036l-.435-.02.376.059-.939.014C256.541,284.028,256.508,285.167,256.508,285.8Z" transform="translate(-146.766 -46.264)" fill="#808122"/>
    <path id="Path_5381" data-name="Path 5381" d="M258.668,260.646a.484.484,0,0,0,.131.2.54.54,0,0,0,.1.072.353.353,0,0,0,.117.025.466.466,0,0,0,.2-.014.54.54,0,0,0,.131-.059.086.086,0,0,0,.033-.02.165.165,0,0,0-.033.014.443.443,0,0,0-.059.014.383.383,0,0,1-.078.014c-.025.006-.059.006-.092.014a.393.393,0,0,1-.1-.014.315.315,0,0,1-.1-.025.516.516,0,0,1-.092-.059.455.455,0,0,1-.123-.176.613.613,0,0,1-.064-.175c-.014-.059-.025-.1-.033-.137a.212.212,0,0,0-.006-.053,1.2,1.2,0,0,0,.006.187A.682.682,0,0,0,258.668,260.646Z" transform="translate(-148.118 -31.7)" fill="#808122"/>
    <path id="Path_5382" data-name="Path 5382" d="M259.79,262.955a1.143,1.143,0,0,1-.371.1h.421a.076.076,0,0,0,.078-.078v-.162A.328.328,0,0,1,259.79,262.955Z" transform="translate(-148.639 -33.29)" fill="#808122"/>
    <path id="Path_5383" data-name="Path 5383" d="M261.423,285.961a1.108,1.108,0,0,1-.187.332,2.437,2.437,0,0,1-.245.259,2.051,2.051,0,0,1-.254.2,4.461,4.461,0,0,1-.415.265l-.059.039a.677.677,0,0,1,.064-.033,3.355,3.355,0,0,0,.426-.245,2.331,2.331,0,0,0,.259-.2,1.669,1.669,0,0,0,.259-.265,1.247,1.247,0,0,0,.2-.343,1.021,1.021,0,0,0,.039-.2v-.206c-.006-.265-.006-.538-.014-.791,0-.131-.006-.245-.006-.362s-.006-.226-.014-.332c-.006-.2-.014-.371-.014-.485s-.014-.187-.014-.187v.671c0,.41,0,.947.006,1.485v.2A.654.654,0,0,1,261.423,285.961Z" transform="translate(-149.248 -46.144)" fill="#808122"/>
    <path id="Path_5384" data-name="Path 5384" d="M259.649,259.534a.359.359,0,0,1-.053-.006.848.848,0,0,1-.128-.014c-.111-.006-.259-.006-.407-.006s-.292,0-.4.006c-.053.006-.1.014-.128.014a.027.027,0,1,0,0,.011c.033,0,.078.006.128.006.111.006.259.014.4.014s.3-.006.407-.014c.053,0,.1-.006.128-.006A.359.359,0,0,1,259.649,259.534Z" transform="translate(-148.057 -31.228)" fill="#808122"/>
    <path id="Path_5385" data-name="Path 5385" d="M259.99,284.463s.181.059.181-.22v-1.58h-.181Z" transform="translate(-148.997 -45.677)" fill="#808122"/>
    <path id="Path_5386" data-name="Path 5386" d="M245.636,279.448c-.02-.006-.045-.014-.064.033a.34.34,0,0,1,.148.084.393.393,0,0,1,.014-.1C245.7,279.462,245.666,279.456,245.636,279.448Z" transform="translate(-139.419 -43.668)" fill="#808122"/>
    <path id="Path_5387" data-name="Path 5387" d="M238.222,279.455a.091.091,0,0,0-.045.033c.014-.006.033-.006.053-.014A.041.041,0,0,1,238.222,279.455Z" transform="translate(-134.501 -43.675)" fill="#808122"/>
    <path id="Path_5388" data-name="Path 5388" d="M236.032,280.752c-.014.02-.02.033-.033.053a.955.955,0,0,1,.092-.092C236.065,280.707,236.046,280.727,236.032,280.752Z" transform="translate(-133.057 -44.46)" fill="#808122"/>
    <path id="Path_5389" data-name="Path 5389" d="M234.775,264.932l-.148.214h.019c.059-.064.111-.131.162-.195C234.795,264.946,234.789,264.938,234.775,264.932Z" transform="translate(-132.151 -34.613)" fill="#808122"/>
    <path id="Path_5390" data-name="Path 5390" d="M234.9,286.008a.323.323,0,0,1-.254-.053c-.265-.142-.538-.259-.8-.421-.064-.045-.131-.006-.2-.006a.189.189,0,0,0-.053.006c-.111.039-.181-.039-.234-.142-.006-.006-.014-.014-.014-.019.006-.092-.045-.092-.092-.1-.111-.025-.215-.053-.323-.078a1.068,1.068,0,0,1-.059.111,3.228,3.228,0,0,0,.318.273.471.471,0,0,0,.44.078c.064-.02.128-.033.2-.053.045-.006.1,0,.111.064.006.137.084.2.142.284a1.228,1.228,0,0,0,.1.148.185.185,0,0,0,.078.053c.1.025.206.059.312.092.02.006.039.014.045.033.064.1.123.2.187.312-.064.045-.117.084-.176.123-.014.006-.025.014-.039.006-.1-.059-.142.053-.206.1a2.448,2.448,0,0,0,.318.591c.072.078.131.176.2.259.02.025.039.053.064.059.214.058.421.123.63.181a1.267,1.267,0,0,0,.176.025,1.574,1.574,0,0,1,.4.053c.131-.006.259,0,.382.006a1.87,1.87,0,0,1,.426-.059q.088-.008.176-.025c.206-.059.421-.123.63-.181.025-.006.045-.033.064-.059.064-.084.123-.181.2-.259a2.439,2.439,0,0,0,.318-.591c-.064-.053-.111-.162-.206-.1a.049.049,0,0,1-.039-.006c-.053-.039-.111-.078-.167-.123.059-.111.123-.206.181-.312.006-.02.025-.025.045-.033.1-.033.206-.064.312-.092a.185.185,0,0,0,.078-.053c.033-.053.072-.1.1-.148.053-.092.128-.148.142-.284,0-.064.059-.072.1-.064.064.02.131.033.2.053a.464.464,0,0,0,.435-.078,2.616,2.616,0,0,0,.318-.273,1.068,1.068,0,0,1-.058-.111c-.111.025-.215.053-.323.078-.045.006-.1.006-.092.1,0,.006-.006.014-.006.019-.059.1-.128.181-.24.142a.153.153,0,0,0-.053-.006c-.072,0-.136-.039-.2.006-.259.162-.532.279-.8.421a.333.333,0,0,1-.254.053,1.546,1.546,0,0,0-.3-.014c.02-.064.039-.111.053-.162a1.192,1.192,0,0,1-.421.156c-.045.014-.078-.025-.111-.045a.1.1,0,0,0-.1-.02.977.977,0,0,1-.474.039c-.045,0-.064-.045-.092-.078-.006-.006-.006-.014-.014-.014s-.006.006-.014.014c-.025.033-.045.078-.092.078a.977.977,0,0,1-.474-.039.1.1,0,0,0-.1.02c-.033.02-.064.059-.1.045a1.05,1.05,0,0,1-.426-.162c.014.053.033.1.053.167A1.567,1.567,0,0,0,234.9,286.008Z" transform="translate(-131.387 -47.259)" fill="#808122"/>
    <path id="Path_5391" data-name="Path 5391" d="M237.812,279.544a.452.452,0,0,0-.059.014c-.033.006-.064.014-.1.02s-.059.033-.059.078a.172.172,0,0,1-.006.053c.072,0,.123-.059.176-.111.006-.014.02-.02.025-.033A.127.127,0,0,1,237.812,279.544Z" transform="translate(-134.122 -43.731)" fill="#808122"/>
    <path id="Path_5392" data-name="Path 5392" d="M214.377,282.2a1.579,1.579,0,1,0-3.134.006,1.711,1.711,0,0,0,1.554,1.755A1.683,1.683,0,0,0,214.377,282.2Zm-.51-.24h.006a.1.1,0,0,1,.039-.006.149.149,0,0,1,.072.02.246.246,0,0,1,0,.446.135.135,0,0,1-.072.019.184.184,0,0,1-.084-.019.241.241,0,0,1-.117-.167.091.091,0,0,1-.014-.059v-.006a.161.161,0,0,1,.02-.084.226.226,0,0,1,.111-.131A.067.067,0,0,1,213.868,281.965Zm-1.075-1.237a.139.139,0,0,1,.1.033.054.054,0,0,1,.045.033.082.082,0,0,1,.033.045.2.2,0,0,1,.045.136.183.183,0,0,1-.02.084.047.047,0,0,1-.014.039.181.181,0,0,1-.053.059.1.1,0,0,1-.039.025.153.153,0,0,1-.1.033.232.232,0,0,1-.214-.24A.236.236,0,0,1,212.792,280.728Zm-1.05,1.716a.23.23,0,0,1-.215-.245.218.218,0,0,1,.025-.111.153.153,0,0,1,.033-.059c.006-.006.02-.02.025-.02a.005.005,0,0,0,.006-.006c.006,0,.014-.006.02-.006a.093.093,0,0,1,.053-.025.07.07,0,0,1,.053-.014.13.13,0,0,1,.078.02.265.265,0,0,1,.059.053c.006-.006.014,0,.014.014a.005.005,0,0,1,.006.006c.006,0,.014.014.02.025s.014.006.006.014a.181.181,0,0,1,.033.111A.233.233,0,0,1,211.742,282.444Zm.4-.245a.654.654,0,1,1,.649.733A.69.69,0,0,1,212.143,282.2Zm.465,1.237a.368.368,0,0,1,.006-.078.228.228,0,0,1,.039-.1c.014-.02.025-.039.045-.045a.151.151,0,0,1,.111-.045.233.233,0,0,1,.214.245.193.193,0,0,1-.053.142.2.2,0,0,1-.045.053c-.014.014-.02.02-.033.02a.129.129,0,0,1-.084.025.176.176,0,0,1-.142-.072A.285.285,0,0,1,212.609,283.436Z" transform="translate(-116.77 -44.285)" fill="#808122"/>
    <path id="Path_5393" data-name="Path 5393" d="M193.611,209.465H174.623a9.829,9.829,0,0,0-9.814,9.814v18.993a9.824,9.824,0,0,0,9.814,9.814h18.988a9.821,9.821,0,0,0,9.4-7,.376.376,0,0,0,.025-.092,9.665,9.665,0,0,0,.387-2.722V219.277a9.824,9.824,0,0,0-9.811-9.812Zm9.569,9.814v18.993a9.375,9.375,0,0,1-.4,2.708.613.613,0,0,1-.033.117,9.583,9.583,0,0,1-9.14,6.744H174.623a9.587,9.587,0,0,1-9.16-6.794c0-.006,0-.014-.006-.014a9.714,9.714,0,0,1-.4-2.761V219.28a9.582,9.582,0,0,1,9.569-9.569h18.988a9.577,9.577,0,0,1,9.566,9.569Z" transform="translate(-87.725 0)" fill="#808122"/>
    <path id="Path_5394" data-name="Path 5394" d="M196.637,282.184a1.577,1.577,0,1,0-1.582,1.761A1.694,1.694,0,0,0,196.637,282.184Zm-1.607-1.476a.139.139,0,0,1,.1.033c.1.014.148.131.142.226a.223.223,0,0,1-.156.206.147.147,0,0,1-.053.014c-.006.006-.02.006-.033.006a.232.232,0,0,1-.215-.24A.238.238,0,0,1,195.029,280.708Zm-.847,1.554a.127.127,0,0,1-.045.072.178.178,0,0,1-.156.092.233.233,0,0,1-.214-.245.236.236,0,0,1,.078-.176.165.165,0,0,1,.137-.064.171.171,0,0,1,.123.053c.059.02.1.064.1.176A.246.246,0,0,1,194.182,282.262Zm1.086,1.145c0,.006,0,.006-.006.014a.148.148,0,0,1-.039.1.036.036,0,0,1-.02.033.294.294,0,0,1-.064.053c-.014.006-.025.014-.045.006a.051.051,0,0,1-.045.014.226.226,0,0,1-.215-.24.232.232,0,0,1,.215-.245c.02,0,.033,0,.045.014.006-.006.014,0,.014,0a.052.052,0,0,1,.045.019.084.084,0,0,1,.039.033.1.1,0,0,1,.033.039.082.082,0,0,1,.025.064c.006.006.014.006.006.014a.1.1,0,0,1,.014.064v.014Zm.357-.958a.571.571,0,0,1-.053.117.458.458,0,0,1-.072.1.586.586,0,0,1-.474.24.734.734,0,0,1,0-1.457.587.587,0,0,1,.382.142.745.745,0,0,1,.265.582A.561.561,0,0,1,195.625,282.449Zm.312-.27a.23.23,0,0,1,.214-.24.232.232,0,0,1,.22.24.183.183,0,0,1-.025.1.024.024,0,0,1-.014.025.2.2,0,0,1-.181.117A.233.233,0,0,1,195.937,282.178Z" transform="translate(-104.973 -44.265)" fill="#808122"/>
  </g>
</svg>
