<svg id="print" xmlns="http://www.w3.org/2000/svg" width="17.336" height="17.336" viewBox="0 0 17.336 17.336">
  <path id="Path_4587" data-name="Path 4587" d="M15.53,14.668H13.363a.361.361,0,1,1,0-.722H15.53a1.085,1.085,0,0,0,1.083-1.083V7.806A1.085,1.085,0,0,0,15.53,6.722H1.806A1.085,1.085,0,0,0,.722,7.806v5.056a1.085,1.085,0,0,0,1.083,1.083H3.973a.361.361,0,1,1,0,.722H1.806A1.808,1.808,0,0,1,0,12.862V7.806A1.808,1.808,0,0,1,1.806,6H15.53a1.808,1.808,0,0,1,1.806,1.806v5.056A1.808,1.808,0,0,1,15.53,14.668Z" transform="translate(0 -1.666)" fill="#fff"/>
  <path id="Path_4588" data-name="Path 4588" d="M12.7,20.722H8.361a.361.361,0,1,1,0-.722H12.7a.361.361,0,1,1,0,.722Z" transform="translate(-2.221 -5.553)" fill="#fff"/>
  <path id="Path_4589" data-name="Path 4589" d="M12.7,18.722H8.361a.361.361,0,1,1,0-.722H12.7a.361.361,0,0,1,0,.722Z" transform="translate(-2.221 -4.998)" fill="#fff"/>
  <path id="Path_4590" data-name="Path 4590" d="M9.806,16.722H8.361a.361.361,0,1,1,0-.722H9.806a.361.361,0,0,1,0,.722Z" transform="translate(-2.221 -4.443)" fill="#fff"/>
  <path id="Path_4591" data-name="Path 4591" d="M14.751,5.056A.361.361,0,0,1,14.39,4.7V1.806A1.085,1.085,0,0,0,13.307.722h-6.5A1.085,1.085,0,0,0,5.722,1.806V4.7A.361.361,0,1,1,5,4.7V1.806A1.808,1.808,0,0,1,6.806,0h6.5a1.808,1.808,0,0,1,1.806,1.806V4.7A.361.361,0,0,1,14.751,5.056Z" transform="translate(-1.388)" fill="#fff"/>
  <path id="Path_4592" data-name="Path 4592" d="M13.307,20.946h-6.5A1.808,1.808,0,0,1,5,19.14V13.361A.361.361,0,0,1,5.361,13h9.39a.361.361,0,0,1,.361.361V19.14A1.808,1.808,0,0,1,13.307,20.946ZM5.722,13.722V19.14a1.085,1.085,0,0,0,1.083,1.083h6.5A1.085,1.085,0,0,0,14.39,19.14V13.722Z" transform="translate(-1.388 -3.61)" fill="#fff"/>
</svg>
