<svg xmlns="http://www.w3.org/2000/svg" width="22.63" height="26" viewBox="0 0 22.63 26">
  <path id="share" d="M18.373,17.489a4.246,4.246,0,0,0-3.147,1.394L8.22,14.544a4.239,4.239,0,0,0,0-3.086l7.006-4.34A4.255,4.255,0,1,0,14.408,5.8L7.4,10.139a4.256,4.256,0,1,0,0,5.724L14.408,20.2a4.255,4.255,0,1,0,3.965-2.712ZM15.67,4.256a2.7,2.7,0,1,1,2.7,2.7,2.707,2.707,0,0,1-2.7-2.7ZM4.255,15.7a2.7,2.7,0,1,1,2.7-2.7A2.707,2.707,0,0,1,4.255,15.7Zm11.414,6.04a2.7,2.7,0,1,1,2.7,2.7A2.707,2.707,0,0,1,15.67,21.745Zm0,0" transform="translate(0 -0.001)" fill="#fff"/>
</svg>
