<svg xmlns="http://www.w3.org/2000/svg" width="42.839" height="39.421" viewBox="0 0 42.839 39.421">
  <g id="svgexport-10_سكنية_2_1_" data-name="svgexport-10 سكنية 2 (1)" transform="translate(0.019 -8.7)">
    <path id="Path_5118" data-name="Path 5118" d="M26.091,30.563V43.056c0,.506.268.844.669.844H37.132c.4,0,.669-.338.669-.844V30.563c0-.506-.268-.844-.669-.844H26.76A.777.777,0,0,0,26.091,30.563Zm1.338,7.091h3.814v4.558H27.43Zm5.153,4.558V37.654H36.4v4.558ZM36.4,35.965H32.582V31.407H36.4Zm-5.153-4.558v4.558H27.43V31.407ZM42.151,46.433H41.081V24.907h1.071a.577.577,0,0,0,.535-.338,1.529,1.529,0,0,0,.134-.76l-2.342-9.961a.7.7,0,0,0-.669-.591H18.329L15.05,9.46a2.007,2.007,0,0,0-3.145,0L.73,22.459c-1.2,1.435-.937,3.967.669,4.812a1.823,1.823,0,0,0,1.472.169V46.433H.663c-.4,0-.669.338-.669.844s.268.844.669.844H42.151c.4,0,.669-.338.669-.844A.77.77,0,0,0,42.151,46.433Zm-2.81-31.486,1.941,8.272H26.627a4.668,4.668,0,0,0-.468-.76c-5.487-6.415-6.357-7.428-6.424-7.513Zm-19.607,0Zm-1,31.486H8.158V31.407H18.73ZM8.291,29.719a.835.835,0,0,1,.268-.422l3.881-4.643a1.183,1.183,0,0,1,1.941,0L18.262,29.3a1.48,1.48,0,0,1,.268.422ZM22.679,46.433h-2.61V30.563a4.17,4.17,0,0,0-.87-2.532l-3.881-4.643a2.323,2.323,0,0,0-3.747,0L7.689,28.031a4.17,4.17,0,0,0-.87,2.532V46.348H4.21V26.342l9.3-10.889,9.234,10.8ZM13.912,13.765a.557.557,0,0,0-.468-.253.657.657,0,0,0-.468.253L2.938,25.5a.869.869,0,0,1-1.071.253A1.416,1.416,0,0,1,1.6,23.726L12.775,10.641a.866.866,0,0,1,1.338,0l11.108,13a1.534,1.534,0,0,1,.335.929,1.109,1.109,0,0,1-.6,1.1.907.907,0,0,1-1.071-.253Zm25.83,32.668H24.017V27.44a1.189,1.189,0,0,0,.535.084,1.955,1.955,0,0,0,.937-.253,2.81,2.81,0,0,0,1.338-2.364H39.675ZM16.857,40.777c.4,0,.669-.338.669-.844V37.907c0-.506-.268-.844-.669-.844s-.669.338-.669.844v2.026C16.188,40.439,16.455,40.777,16.857,40.777Z" transform="translate(0)" fill="#1db1ff"/>
  </g>
</svg>
