<svg xmlns="http://www.w3.org/2000/svg" width="38.384" height="38.384" viewBox="0 0 38.384 38.384">
  <g id="svgexport-10_دهان" data-name="svgexport-10 دهان" transform="translate(-3 -3)">
    <g id="_15_Paint_Roller" data-name="15 Paint Roller" transform="translate(3 3)">
      <path id="Path_5178" data-name="Path 5178" d="M50.883,29.618H46.912V26.309a3.309,3.309,0,1,0-6.618,0v3.309H36.324A1.324,1.324,0,0,0,35,30.942v1.324a1.318,1.318,0,0,0,.684,1.151L36.3,46.884a1.324,1.324,0,0,0,1.324,1.265H49.589a1.324,1.324,0,0,0,1.324-1.263l.612-13.469a1.318,1.318,0,0,0,.682-1.151V30.942A1.324,1.324,0,0,0,50.883,29.618Zm0,1.324v1.324H46.912V30.942Zm-9.265-4.633a1.985,1.985,0,0,1,3.971,0v3.309H41.618Zm-5.294,4.633h9.265v1.324H36.324ZM49.589,46.825H37.618l-.6-13.236h8.572v1.445a1.985,1.985,0,1,0,1.324,0V33.589H50.19ZM46.251,36.236a.662.662,0,1,1-.662.662A.662.662,0,0,1,46.251,36.236Z" transform="translate(-13.822 -9.764)" fill="olive"/>
      <path id="Path_5179" data-name="Path 5179" d="M17.525,24.63a.662.662,0,0,0-.627-.453V21.3l11.126-4.945a1.324,1.324,0,0,0,.786-1.21V7.633a1.324,1.324,0,0,0-1.324-1.324H26.163V4.324A1.324,1.324,0,0,0,24.839,3H5.647A1.324,1.324,0,0,0,4.324,4.324V6.309H3.662a.662.662,0,1,0,0,1.324h.662V9.618a1.324,1.324,0,0,0,1.324,1.324H24.839a1.324,1.324,0,0,0,1.324-1.324V7.633h1.324v7.511L16.36,20.089a1.324,1.324,0,0,0-.786,1.21v2.879a.662.662,0,0,0-.627.453L13.623,28.6a.662.662,0,0,0-.034.209V40.061a1.324,1.324,0,0,0,1.324,1.324H17.56a1.324,1.324,0,0,0,1.324-1.324V28.81a.662.662,0,0,0-.034-.209ZM24.839,9.618H5.647V4.324H24.839ZM14.912,40.061V28.917L16.051,25.5h.369l1.139,3.416v2.54H16.236a.662.662,0,0,0,0,1.324H17.56V36.09H16.236a.662.662,0,0,0,0,1.324H17.56v2.647Z" transform="translate(-3 -3)" fill="olive"/>
      <path id="Path_5180" data-name="Path 5180" d="M24.883,9H9.662a.662.662,0,0,0,0,1.324H24.883a.662.662,0,1,0,0-1.324Z" transform="translate(-5.029 -5.029)" fill="olive"/>
    </g>
  </g>
</svg>
