<svg xmlns="http://www.w3.org/2000/svg" width="47.768" height="61.888" viewBox="0 0 47.768 61.888">
  <g id="upload" transform="translate(-58.408)">
    <path id="Path_5258" data-name="Path 5258" d="M98.832,0H60.822a2.417,2.417,0,0,0-2.414,2.414V48.29A2.417,2.417,0,0,0,60.822,50.7h2.443a.6.6,0,0,0,.442-.192l37.411-40.068a.6.6,0,0,0,.163-.412V2.449A2.451,2.451,0,0,0,98.832,0Z" transform="translate(0 0)" fill="#1db1ff"/>
    <path id="Path_5259" data-name="Path 5259" d="M137.107,47.894V85.488a2.417,2.417,0,0,1-2.414,2.415H96.007a2.417,2.417,0,0,1-2.415-2.415V39.914A2.417,2.417,0,0,1,96.007,37.5h30.7l1.117,1.117Z" transform="translate(-30.931 -32.967)" fill="#d9f9f8"/>
    <path id="Path_5260" data-name="Path 5260" d="M137.107,56.017V93.611a2.417,2.417,0,0,1-2.414,2.415H96.007a2.417,2.417,0,0,1-2.415-2.415V93h38.6a2.441,2.441,0,0,0,2.44-2.442V56.017l-6.8-9.277Z" transform="translate(-30.931 -41.09)" fill="#c1eaf4"/>
    <path id="Path_5261" data-name="Path 5261" d="M377.987,47.894h-9.6a.8.8,0,0,1-.8-.8V37.5a.6.6,0,0,1,.428.176l9.791,9.791A.6.6,0,0,1,377.987,47.894Z" transform="translate(-271.811 -32.967)" fill="#aec9d6"/>
    <path id="Path_5262" data-name="Path 5262" d="M381.1,49.178H378.62L371.132,38.96l9.791,9.791A.6.6,0,0,1,381.1,49.178Z" transform="translate(-274.923 -34.251)" fill="#8fb2bc"/>
    <g id="Group_3141" data-name="Group 3141" transform="translate(72.691 21.208)">
      <path id="Path_5263" data-name="Path 5263" d="M177.476,177.269h21.688a.907.907,0,0,0,0-1.813H177.476a.907.907,0,0,0,0,1.813Z" transform="translate(-176.569 -175.456)" fill="#aec9d6"/>
      <path id="Path_5264" data-name="Path 5264" d="M199.163,219.688H177.476a.907.907,0,0,0,0,1.813h21.688a.907.907,0,0,0,0-1.813Z" transform="translate(-176.569 -214.341)" fill="#aec9d6"/>
      <path id="Path_5265" data-name="Path 5265" d="M325.735,264.8h-4.285a.907.907,0,1,0,0,1.813h4.285a.907.907,0,1,0,0-1.813Z" transform="translate(-303.141 -254.002)" fill="#aec9d6"/>
      <path id="Path_5266" data-name="Path 5266" d="M190.612,264.8H177.476a.907.907,0,1,0,0,1.813h13.137a.907.907,0,1,0,0-1.813Z" transform="translate(-176.569 -254.002)" fill="#aec9d6"/>
    </g>
    <path id="Path_5267" data-name="Path 5267" d="M202.355,335A11.391,11.391,0,0,1,189.52,346.29h0a11.387,11.387,0,0,1,0-22.588h0A11.39,11.39,0,0,1,202.355,335Z" transform="translate(-106.527 -284.493)" fill="#169ae0"/>
    <path id="Path_5268" data-name="Path 5268" d="M274.637,335A11.391,11.391,0,0,1,261.8,346.29a11.387,11.387,0,0,0,0-22.588A11.39,11.39,0,0,1,274.637,335Z" transform="translate(-178.809 -284.493)" fill="#1db1ff"/>
    <path id="Path_5269" data-name="Path 5269" d="M242.96,370.512a.907.907,0,0,1-1.282,0l-2.417-2.417v8.764a.907.907,0,1,1-1.813,0V368.1l-2.417,2.417a.907.907,0,0,1-1.282-1.282l3.964-3.964a.907.907,0,0,1,1.282,0l3.964,3.964A.907.907,0,0,1,242.96,370.512Z" transform="translate(-153.914 -320.88)" fill="#fff"/>
  </g>
</svg>
