<svg xmlns="http://www.w3.org/2000/svg" width="38.405" height="38.405" viewBox="0 0 38.405 38.405">
  <g id="ايميل" transform="translate(-0.001)">
    <g id="svgexport-10_3_" data-name="svgexport-10 (3)" transform="translate(0.001 0)">
      <g id="Group_2896" data-name="Group 2896" transform="translate(15.902 15.752)">
        <g id="Group_2895" data-name="Group 2895">
          <path id="Path_5129" data-name="Path 5129" d="M215.375,210a3.375,3.375,0,1,0,3.375,3.375A3.379,3.379,0,0,0,215.375,210Z" transform="translate(-212 -210)" fill="#f14336"/>
        </g>
      </g>
      <g id="Group_2898" data-name="Group 2898">
        <g id="Group_2897" data-name="Group 2897">
          <path id="Path_5130" data-name="Path 5130" d="M19.128,0a19.2,19.2,0,0,0,0,38.405A19.406,19.406,0,0,0,38.405,19.128,19.278,19.278,0,0,0,19.128,0Zm8.026,24.753a4.492,4.492,0,0,1-3.677-1.92,5.628,5.628,0,1,1-.824-8.178v-.029a1.125,1.125,0,0,1,2.25,0v5.626a2.25,2.25,0,0,0,4.5,0C29.4,12.722,24.421,9,19.278,9a10.126,10.126,0,0,0,0,20.253,10.018,10.018,0,0,0,6.155-2.086A1.125,1.125,0,0,1,26.8,28.953,12.256,12.256,0,0,1,19.278,31.5a12.377,12.377,0,0,1,0-24.753c6.218,0,12.377,4.586,12.377,13.5A4.505,4.505,0,0,1,27.154,24.753Z" fill="#f14336"/>
        </g>
      </g>
    </g>
  </g>
</svg>
