<svg xmlns="http://www.w3.org/2000/svg" width="26.619" height="25.324" viewBox="0 0 26.619 25.324">
  <g id="تواصل_معنا2" data-name="تواصل معنا2" transform="translate(0.513 0.5)">
    <path id="Path_5590" data-name="Path 5590" d="M24.519,12.813H6.633A1.09,1.09,0,0,0,5.544,13.9v4.933l-.818-1.227a1.265,1.265,0,0,0-1.707-.384L1.336,18.236A2.469,2.469,0,0,0,.208,19.7C-.406,21.934.05,25.784,5.7,31.437c4.495,4.49,7.846,5.7,10.156,5.7a5.964,5.964,0,0,0,1.584-.207A2.473,2.473,0,0,0,18.905,35.8l1.01-1.684a1.265,1.265,0,0,0-.384-1.705L15.5,29.728A1.272,1.272,0,0,0,13.8,30l-1.173,1.508a.409.409,0,0,1-.523.111l-.223-.123a13.419,13.419,0,0,1-3.5-2.746c-.2-.2-.381-.387-.551-.566H24.519a1.088,1.088,0,0,0,1.089-1.083V13.9A1.09,1.09,0,0,0,24.519,12.813ZM11.472,32.25l.217.119a1.257,1.257,0,0,0,1.611-.332l1.173-1.508a.415.415,0,0,1,.555-.09l4.029,2.686a.412.412,0,0,1,.125.555l-1.01,1.684a1.622,1.622,0,0,1-.957.743c-2.018.555-5.549.085-10.909-5.275S.479,21.94,1.033,19.924a1.622,1.622,0,0,1,.742-.957L3.46,17.957a.413.413,0,0,1,.555.125L6.7,22.111a.414.414,0,0,1-.09.555L5.1,23.84a1.257,1.257,0,0,0-.332,1.611l.12.217a14.151,14.151,0,0,0,2.892,3.691A14.18,14.18,0,0,0,11.472,32.25Zm13.281-5.144a.233.233,0,0,1-.235.231H7.065A10.765,10.765,0,0,1,5.64,25.26l-.123-.224a.407.407,0,0,1,.11-.522l1.509-1.173a1.271,1.271,0,0,0,.276-1.7L6.4,20.116V13.9a.232.232,0,0,1,.235-.235H24.519a.232.232,0,0,1,.235.235v13.2Z" transform="translate(-0.001 -12.813)" fill="none" stroke="#aeaeae" stroke-width="1"/>
    <path id="Path_5591" data-name="Path 5591" d="M163.942,50.675l-7.134,5.411a.576.576,0,0,1-.677,0L149,50.675a.427.427,0,1,0-.516.68l7.133,5.41a1.437,1.437,0,0,0,1.707,0l7.135-5.41a.427.427,0,0,0-.516-.68Z" transform="translate(-140.894 -48.698)" fill="none" stroke="#aeaeae" stroke-width="1"/>
    <path id="Path_5592" data-name="Path 5592" d="M153.3,172.53l-4.373,4.683a.427.427,0,0,0,.624.582l4.373-4.685a.427.427,0,0,0-.625-.58Z" transform="translate(-141.366 -164.427)" fill="none" stroke="#aeaeae" stroke-width="1"/>
    <path id="Path_5593" data-name="Path 5593" d="M370.691,172.214a.427.427,0,1,0-.624.582l4.372,4.683a.427.427,0,1,0,.624-.582Z" transform="translate(-351.445 -164.111)" fill="none" stroke="#aeaeae" stroke-width="1"/>
  </g>
</svg>
