<svg id="تويتر" xmlns="http://www.w3.org/2000/svg" width="38.195" height="38.195" viewBox="0 0 38.195 38.195">
  <g id="Group_3249" data-name="Group 3249" transform="translate(0 0)">
    <ellipse id="Ellipse_71" data-name="Ellipse 71" cx="19.098" cy="19.098" rx="19.098" ry="19.098" transform="translate(0)" fill="#55acee"/>
    <g id="Group_3248" data-name="Group 3248" transform="translate(2.575 6.37)">
      <path id="Path_5595" data-name="Path 5595" d="M58.494,37.24a13.668,13.668,0,0,1-3.935,1.077,6.869,6.869,0,0,0,3.013-3.789,13.714,13.714,0,0,1-4.35,1.662A6.856,6.856,0,0,0,41.548,42.44a19.446,19.446,0,0,1-14.121-7.159,6.858,6.858,0,0,0,2.12,9.146,6.8,6.8,0,0,1-3.1-.858c0,.029,0,.058,0,.087a6.855,6.855,0,0,0,5.5,6.717,6.877,6.877,0,0,1-3.093.119,6.858,6.858,0,0,0,6.4,4.757A13.829,13.829,0,0,1,25.1,58.086a19.377,19.377,0,0,0,10.5,3.078c12.6,0,19.492-10.439,19.492-19.492,0-.3-.007-.593-.02-.886a13.892,13.892,0,0,0,3.419-3.546Z" transform="translate(-25.103 -34.028)" fill="#f1f2f2"/>
    </g>
  </g>
</svg>
