<svg xmlns="http://www.w3.org/2000/svg" width="22" height="22" viewBox="0 0 22 22">
  <g id="جدول_الاعمال1" data-name="جدول الاعمال1" transform="translate(0 -0.139)">
    <path id="Path_5596" data-name="Path 5596" d="M147.066,211.753a.345.345,0,0,0-.345-.345h-8.663a.345.345,0,0,0,0,.69h8.663A.345.345,0,0,0,147.066,211.753Z" transform="translate(-132.072 -202.205)" fill="#1db1ff"/>
    <path id="Path_5597" data-name="Path 5597" d="M138.058,285.577a.345.345,0,1,0,0,.69h5.7a.345.345,0,0,0,0-.69Z" transform="translate(-131.952 -273.192)" fill="#1db1ff"/>
    <path id="Path_5598" data-name="Path 5598" d="M149.39,65.85V63.979a.91.91,0,0,0-.909-.909h-9.86a.91.91,0,0,0-.909.909V65.85a.91.91,0,0,0,.909.909h.766a.345.345,0,1,0,0-.69h-.766a.219.219,0,0,1-.219-.219V63.979a.219.219,0,0,1,.219-.219h9.86a.219.219,0,0,1,.219.219V65.85a.219.219,0,0,1-.219.219H141a.345.345,0,0,0,0,.69h7.48a.91.91,0,0,0,.909-.909Z" transform="translate(-132.208 -60.035)" fill="#1db1ff"/>
    <path id="Path_5599" data-name="Path 5599" d="M18.219,12.328a.32.32,0,0,0-.318.322v8.411a.431.431,0,0,1-.428.433H4.637V.784H17.473a.431.431,0,0,1,.428.433v5.37a.318.318,0,1,0,.637,0V1.217A1.073,1.073,0,0,0,17.473.139H2.387A1.073,1.073,0,0,0,1.322,1.217V2.17H.984a1,1,0,0,0,0,1.994h.338V6.156H.984a1,1,0,0,0,0,1.994h.338v1.992H.984a1,1,0,0,0,0,1.994h.338v1.992H.984a1,1,0,0,0,0,1.994h.338v1.992H.984a1,1,0,0,0,0,1.994h.338v.953a1.073,1.073,0,0,0,1.065,1.078H17.473a1.073,1.073,0,0,0,1.065-1.078V12.65a.32.32,0,0,0-.318-.322ZM.984,3.519a.352.352,0,0,1,0-.7H2.3a.352.352,0,0,1,0,.7Zm0,3.986a.352.352,0,0,1,0-.7H2.3a.352.352,0,0,1,0,.7Zm0,3.986a.352.352,0,0,1,0-.7H2.3a.352.352,0,0,1,0,.7Zm0,3.986a.352.352,0,0,1,0-.7H2.3a.352.352,0,0,1,0,.7Zm0,3.986a.352.352,0,0,1,0-.7H2.3a.352.352,0,0,1,0,.7ZM4,21.494H2.387a.431.431,0,0,1-.428-.433v-.953H2.3a1,1,0,0,0,0-1.994H1.959V16.122H2.3a1,1,0,0,0,0-1.994H1.959V12.136H2.3a1,1,0,0,0,0-1.994H1.959V8.15H2.3a1,1,0,0,0,0-1.994H1.959V4.164H2.3a1,1,0,0,0,0-1.994H1.959V1.217A.431.431,0,0,1,2.387.784H4v20.71Z" fill="#1db1ff"/>
    <path id="Path_5600" data-name="Path 5600" d="M180.827,137.333a1.53,1.53,0,0,0-2.165,0L167.191,148.8c-.05.05.051-.088-1.732,2.677a.883.883,0,0,0,1.22,1.22l2.574-1.657a1.376,1.376,0,0,0,.183-.155L180.827,139.5a1.533,1.533,0,0,0,0-2.165Zm-14.522,14.788a.193.193,0,0,1-.266-.266l1.465-2.276,1.078,1.078Zm2.82-1.9-1.189-1.189,9.376-9.376,1.189,1.189Zm11.213-11.213-1.349,1.349L177.8,139.17l1.349-1.349a.841.841,0,0,1,1.189,1.189Z" transform="translate(-159.275 -132.003)" fill="#1db1ff"/>
  </g>
</svg>
