<svg xmlns="http://www.w3.org/2000/svg" width="20.921" height="23.042" viewBox="0 0 20.921 23.042">
  <g id="عقود2" transform="translate(0.15 0.15)">
    <path id="Path_5203" data-name="Path 5203" d="M94.087,137.8h-11.5a.353.353,0,1,0,0,.707h11.5a.353.353,0,1,0,0-.707Z" transform="translate(-79.723 -131.694)" fill="#aeaeae" stroke="#aeaeae" stroke-width="0.3"/>
    <path id="Path_5204" data-name="Path 5204" d="M82.586,86.264h5.75a.353.353,0,0,0,0-.707h-5.75a.353.353,0,0,0,0,.707Z" transform="translate(-79.723 -81.544)" fill="#aeaeae" stroke="#aeaeae" stroke-width="0.3"/>
    <path id="Path_5205" data-name="Path 5205" d="M94.087,184.1h-11.5a.353.353,0,0,0,0,.707h11.5a.353.353,0,1,0,0-.707Z" transform="translate(-79.723 -175.934)" fill="#aeaeae" stroke="#aeaeae" stroke-width="0.3"/>
    <path id="Path_5206" data-name="Path 5206" d="M34.213,20.325h-3.68a1.067,1.067,0,0,1-1.1-1.033V1.7a1.067,1.067,0,0,1,1.1-1.033h10.6a.8.8,0,0,1,.1.007V2.75a1.755,1.755,0,0,0,1.8,1.7h2.2a.667.667,0,0,1,.008.1v5.671a.354.354,0,0,0,.707,0V4.545a1.321,1.321,0,0,0-.425-.967L42.161.4A1.487,1.487,0,0,0,41.135,0h-10.6a1.755,1.755,0,0,0-1.8,1.7V19.292a1.755,1.755,0,0,0,1.8,1.7h3.68a.334.334,0,1,0,0-.666ZM44.75,3.783H43.039a1.067,1.067,0,0,1-1.1-1.033V1.137Z" transform="translate(-28.73 0)" fill="#aeaeae" stroke="#aeaeae" stroke-width="0.3"/>
    <path id="Path_5207" data-name="Path 5207" d="M105.022,258.335l-2.874-5.053a.727.727,0,0,0-1.019-.272l-.7.431a1.41,1.41,0,0,0-.586,1.613,1,1,0,0,1-.731-.008c-.552-.181-.971-.545-1.664-.362-1.177.312-1.141.3-1.247.334a1.753,1.753,0,0,0-1.834-.235l-.652.263a1.006,1.006,0,0,1-.913-.079l-.178-.109a1.4,1.4,0,0,0-.632-1.415h0l-.7-.431a.728.728,0,0,0-1.019.272L87.4,258.335a.793.793,0,0,0,.261,1.061l.7.431a1.278,1.278,0,0,0,.674.193,1.3,1.3,0,0,0,.724-.223l.146.09-.308.446a1.216,1.216,0,0,0,.261,1.653,1.1,1.1,0,0,0,.84.207,1.188,1.188,0,0,0,.457.763,1.093,1.093,0,0,0,.84.208,1.188,1.188,0,0,0,.457.762,1.1,1.1,0,0,0,1.112.127,1.173,1.173,0,0,0,.4.535,1.107,1.107,0,0,0,1.535-.2l.817.5a1.112,1.112,0,0,0,1.558-.415,1.216,1.216,0,0,0,.151-.463h0a1.114,1.114,0,0,0,1.558-.415,1.213,1.213,0,0,0,.156-.516,1.121,1.121,0,0,0,1.257-.545,1.212,1.212,0,0,0,.153-.48,1.117,1.117,0,0,0,1.394-.5,1.22,1.22,0,0,0,.123-.9,1.2,1.2,0,0,0-.231-.469l.45-.274a1.277,1.277,0,0,0,1.18-.088l.7-.431A.792.792,0,0,0,105.022,258.335Zm-16.317.885-.7-.431a.07.07,0,0,1-.023-.093l2.874-5.053a.064.064,0,0,1,.09-.024l.7.431a.69.69,0,0,1,.227.924l-2.28,4.009A.634.634,0,0,1,88.705,259.22Zm1.547,2.192a.491.491,0,0,1-.105-.667l.452-.656a.449.449,0,0,1,.64-.11.492.492,0,0,1,.105.667l-.452.656A.448.448,0,0,1,90.252,261.412Zm1.3.97a.492.492,0,0,1-.105-.667l.452-.656h0l.5-.724a.454.454,0,0,1,.3-.193.442.442,0,0,1,.342.083.478.478,0,0,1,.185.311.49.49,0,0,1-.08.356l-.951,1.38A.447.447,0,0,1,91.549,262.382Zm1.3.97a.492.492,0,0,1-.105-.667h0l.951-1.38a.448.448,0,0,1,.64-.11.492.492,0,0,1,.105.667l-.423.613h0l-.528.767A.448.448,0,0,1,92.845,263.351Zm1.509.662a.492.492,0,0,1-.105-.667l.317-.459a.448.448,0,0,1,.64-.109.491.491,0,0,1,.105.667l-.316.459A.448.448,0,0,1,94.354,264.013Zm7.6-2.817a.449.449,0,0,1-.629.168l-3-1.853a.332.332,0,0,0-.465.124.362.362,0,0,0,.119.484l2.27,1.4h0a.489.489,0,0,1,.161.655.45.45,0,0,1-.629.168l-2.271-1.4a.332.332,0,0,0-.465.124.362.362,0,0,0,.119.484l1.672,1.032h0a.489.489,0,0,1,.161.655.45.45,0,0,1-.629.168l-.9-.554h0l-.655-.4a.332.332,0,0,0-.465.124.362.362,0,0,0,.119.484l.655.4h0a.489.489,0,0,1,.161.655.45.45,0,0,1-.629.168l-.764-.472A1.218,1.218,0,0,0,95.6,262.2a1.107,1.107,0,0,0-.472-.205,1.215,1.215,0,0,0-.4-1.378,1.1,1.1,0,0,0-.839-.207,1.183,1.183,0,0,0-.457-.762,1.106,1.106,0,0,0-1.472.129,1.162,1.162,0,0,0-.324-.375,1.1,1.1,0,0,0-1.257-.048l-.155-.1,2.133-3.75.1.062a1.657,1.657,0,0,0,1.5.13l.652-.263a.966.966,0,0,1,.948.021,1.619,1.619,0,0,0-.385,1.053v1.566a.741.741,0,0,0,.724.755h0a1.46,1.46,0,0,0,1.06-.457,1.567,1.567,0,0,0,.36-.6l4.475,2.761a.474.474,0,0,1,.211.293A.492.492,0,0,1,101.956,261.2Zm2.46-2.408-.7.431a.634.634,0,0,1-.887-.237l-1.069-1.879a.332.332,0,0,0-.465-.124.362.362,0,0,0-.119.484l1.069,1.879c.02.035.042.069.065.1l-.3.181a1.714,1.714,0,0,0-.173.122l-4.608-2.842a.339.339,0,0,0-.512.3.927.927,0,0,1-.241.671.8.8,0,0,1-.58.25h0a.047.047,0,0,1-.046-.048v-1.566a.873.873,0,0,1,.636-.851l1.126-.3c.409-.108.64.12,1.252.336a1.651,1.651,0,0,0,1.3-.022l.2.36a.332.332,0,0,0,.465.124.362.362,0,0,0,.119-.484l-.4-.709a.69.69,0,0,1,.227-.924l.7-.431a.064.064,0,0,1,.09.024l2.874,5.053A.07.07,0,0,1,104.416,258.788Z" transform="translate(-84.549 -242.316)" fill="#aeaeae" stroke="#aeaeae" stroke-width="0.3"/>
  </g>
</svg>
