<svg id="فواتير" xmlns="http://www.w3.org/2000/svg" width="24" height="23.999" viewBox="0 0 24 23.999">
  <path id="Path_124" data-name="Path 124" d="M20.25,12.755c-.2,0,.183-.124-5.231,1.958C11.968,9.217,11.254.782,11.247.695A.751.751,0,0,0,9.876.339L8.792,1.965,7.166.881a.75.75,0,0,0-1.144.442L5.53,3.291l-1.364-.91a.75.75,0,0,0-1.144.442L2.53,4.791l-1.365-.91A.751.751,0,0,0,0,4.563a51.169,51.169,0,0,0,1.793,9.532C3.167,18.686,5.731,24,10.5,24a3.758,3.758,0,0,0,1.732-.424l8.087-3.33c.325-.134.19-.077.407-.167,2.187-.9,2.09-.837,2.238-.991a3.757,3.757,0,0,0-2.714-6.338Zm-8.661,9.47a2.288,2.288,0,0,0-.364.162,2.234,2.234,0,0,1-.724.118c-5.766,0-8.106-10.756-8.831-16.486l.915.61a.75.75,0,0,0,1.144-.442l.492-1.967,1.364.91a.75.75,0,0,0,1.144-.442l.492-1.967,1.364.91a.75.75,0,0,0,1.04-.208l.368-.551a38.708,38.708,0,0,0,3.614,12.387l-3.375,1.3A.75.75,0,0,0,10.5,18a2.25,2.25,0,0,1,1.088,4.22Zm10.389-4.278-7.842,3.229a3.749,3.749,0,0,0-1.442-3.961l7.686-2.956a2.254,2.254,0,0,1,1.6,3.688Z" transform="translate(0 -0.005)" fill="#1db1ff"/>
  <path id="Path_125" data-name="Path 125" d="M80.874,146.5l3.189-1.276a.638.638,0,1,0-.474-1.184L80.4,145.318a.638.638,0,0,0,.474,1.184Z" transform="translate(-77.807 -137.103)" fill="#1db1ff"/>
  <path id="Path_126" data-name="Path 126" d="M100.419,208.4a.638.638,0,0,0-.829-.355L96.4,209.318a.638.638,0,0,0,.237,1.23c.172,0-.037.064,3.426-1.321A.638.638,0,0,0,100.419,208.4Z" transform="translate(-91.311 -198.039)" fill="#1db1ff"/>
  <path id="Path_127" data-name="Path 127" d="M354.368,38.192a1.185,1.185,0,0,1-1.276,0,.638.638,0,1,0-.9.9,2,2,0,0,0,1.089.523v.675a.638.638,0,1,0,1.276,0v-.769a1.836,1.836,0,0,0,.1-3.444l-.979-.406c-.51-.211-.6-1.121.432-1.121a.966.966,0,0,1,.638.187.638.638,0,0,0,.9-.9,2,2,0,0,0-1.089-.523v-.675a.638.638,0,0,0-1.276,0v.769a1.836,1.836,0,0,0-.1,3.444l.979.406A.577.577,0,0,1,354.368,38.192Z" transform="translate(-336.267 -30.726)" fill="#1db1ff"/>
</svg>
