<svg xmlns="http://www.w3.org/2000/svg" width="22.405" height="21.973" viewBox="0 0 22.405 21.973">
  <g id="svgexport-6_متابعة_الاعمال" data-name="svgexport-6 متابعة الاعمال" transform="translate(-33.973 0.506)">
    <g id="Group_2903" data-name="Group 2903" transform="translate(34.123 -0.356)">
      <g id="Group_2902" data-name="Group 2902">
        <path id="Path_5183" data-name="Path 5183" d="M39.274,20.138a.375.375,0,0,0,.384-.366V1.155A.434.434,0,0,1,40.1.733H57.464a.434.434,0,0,1,.443.423V5.037a.384.384,0,0,0,.767,0V1.155A1.185,1.185,0,0,0,57.464,0H40.1a1.185,1.185,0,0,0-1.21,1.155V19.772A.375.375,0,0,0,39.274,20.138Z" transform="translate(-38.89 0)" fill="#a2a2a2" stroke="#a2a2a2" stroke-width="0.3"/>
        <path id="Path_5184" data-name="Path 5184" d="M83.953,65.721a1.072,1.072,0,0,0-1.071-1.071H79.358a1.072,1.072,0,0,0-1.071,1.071v3.524a1.072,1.072,0,0,0,1.071,1.071h3.524a1.072,1.072,0,0,0,1.071-1.071Zm-.733,3.524a.339.339,0,0,1-.339.339H79.358a.339.339,0,0,1-.338-.339V65.721a.339.339,0,0,1,.338-.338h3.524a.339.339,0,0,1,.339.338Z" transform="translate(-76.363 -60.751)" fill="#a2a2a2" stroke="#a2a2a2" stroke-width="0.3"/>
        <path id="Path_5185" data-name="Path 5185" d="M112.6,102.471l-.991.991-.366-.366a.366.366,0,1,0-.518.518l.625.625a.366.366,0,0,0,.259.107.672.672,0,0,0,.259-.107l1.25-1.25a.366.366,0,0,0-.518-.518Z" transform="translate(-106.942 -96.624)" fill="#a2a2a2" stroke="#a2a2a2" stroke-width="0.3"/>
        <path id="Path_5186" data-name="Path 5186" d="M226.137,113.872h5.772a.366.366,0,0,0,0-.733h-5.772a.366.366,0,0,0,0,.733Z" transform="translate(-217.209 -107.622)" fill="#a2a2a2" stroke="#a2a2a2" stroke-width="0.3"/>
        <path id="Path_5248" data-name="Path 5248" d="M226.137,113.872h5.772a.366.366,0,0,0,0-.733h-5.772a.366.366,0,0,0,0,.733Z" transform="translate(-217.209 -99.736)" fill="#a2a2a2" stroke="#a2a2a2" stroke-width="0.3"/>
        <path id="Path_5191" data-name="Path 5191" d="M83.953,199.063a1.072,1.072,0,0,0-1.071-1.071H79.358a1.072,1.072,0,0,0-1.071,1.071v3.524a1.072,1.072,0,0,0,1.071,1.071h3.524a1.072,1.072,0,0,0,1.071-1.071Zm-.733,3.524a.339.339,0,0,1-.339.338H79.358a.339.339,0,0,1-.338-.338v-3.524a.339.339,0,0,1,.338-.338h3.524a.339.339,0,0,1,.339.338Z" transform="translate(-76.363 -185.984)" fill="#a2a2a2" stroke="#a2a2a2" stroke-width="0.3"/>
        <path id="Path_5192" data-name="Path 5192" d="M112.6,235.813l-.991.991-.366-.366a.366.366,0,0,0-.518.518l.625.625a.366.366,0,0,0,.518,0l1.25-1.25a.366.366,0,0,0-.518-.518Z" transform="translate(-107.16 -221.855)" fill="#a2a2a2" stroke="#a2a2a2" stroke-width="0.3"/>
        <path id="Path_5195" data-name="Path 5195" d="M226.137,214.887h1.875a.366.366,0,0,0,0-.733h-1.875a.366.366,0,1,0,0,.733Z" transform="translate(-217.208 -207.164)" fill="#a2a2a2" stroke="#a2a2a2" stroke-width="0.3"/>
        <path id="Path_5247" data-name="Path 5247" d="M226.137,214.887h1.875a.366.366,0,0,0,0-.733h-1.875a.366.366,0,1,0,0,.733Z" transform="translate(-217.208 -199.277)" fill="#a2a2a2" stroke="#a2a2a2" stroke-width="0.3"/>
        <path id="Path_5202" data-name="Path 5202" d="M60.98,136a.322.322,0,0,0-.178-.183L59.021,135a.464.464,0,0,0-.445.036v-4.1a.393.393,0,0,0-.764,0v5.11L55.4,139.336l-.441.6-.509.695c-1.185,1.3-2.595,3.8-2.535,4.213l.071.486h-11.9a.4.4,0,0,1-.441-.347V143.04a.393.393,0,0,0-.764,0v1.945a1.1,1.1,0,0,0,1.2.949H57.372a1.1,1.1,0,0,0,1.2-.949v-5.532l2.366-3.228A.246.246,0,0,0,60.98,136Zm-2.257,2.053-1.12-.509.441-.6,1.12.509Zm-.911,6.935a.4.4,0,0,1-.441.347H54.06a2.16,2.16,0,0,0,.614-.554l1.493-2.038a.269.269,0,0,0-.14-.411.442.442,0,0,0-.522.11l-1.493,2.038a1.619,1.619,0,0,1-.784.551l-.489.167-.061-.418a1.085,1.085,0,0,1,.213-.81l4.329-5.907,1.12.509L56.4,141.224a.269.269,0,0,0,.14.411.442.442,0,0,0,.521-.11l.755-1.03v4.49Zm1.733-8.058-1.12-.509.544-.742,1.12.509Z" transform="translate(-38.89 -124.26)" fill="#a2a2a2" stroke="#a2a2a2" stroke-width="0.3"/>
      </g>
    </g>
  </g>
</svg>
