<svg id="واتس" xmlns="http://www.w3.org/2000/svg" xmlns:xlink="http://www.w3.org/1999/xlink" width="39.787" height="39.787" viewBox="0 0 39.787 39.787">
  <defs>
    <linearGradient id="linear-gradient" x1="0.5" y1="0.927" x2="0.5" y2="-0.073" gradientUnits="objectBoundingBox">
      <stop offset="0" stop-color="#78cd51"/>
      <stop offset="1" stop-color="#a0fc84"/>
    </linearGradient>
  </defs>
  <g id="Group_2892" data-name="Group 2892" transform="translate(0 0)">
    <circle id="Ellipse_41" data-name="Ellipse 41" cx="19.893" cy="19.893" r="19.893" fill="url(#linear-gradient)"/>
    <g id="Group_2891" data-name="Group 2891" transform="translate(7.75 6.805)">
      <path id="WA_Logo" data-name="WA Logo" d="M1.8,19.016a12.683,12.683,0,1,1,10.99,6.35h-.005a12.677,12.677,0,0,1-6.06-1.543L0,25.586Zm5.62,2.74a10.522,10.522,0,0,0,5.365,1.469h0a10.539,10.539,0,1,0-8.93-4.938l.251.4L3.045,22.574l3.989-1.046Zm7.439-3.166a18.189,18.189,0,0,1-1.807-.667,14.121,14.121,0,0,1-5.413-4.783A6.163,6.163,0,0,1,6.345,9.862,3.552,3.552,0,0,1,7.454,7.219a1.163,1.163,0,0,1,.845-.4c.211,0,.422,0,.607.011h.071c.185,0,.415,0,.642.543.264.634.9,2.194.977,2.352a.583.583,0,0,1,.027.555,2.16,2.16,0,0,1-.317.528c-.159.185-.333.413-.476.555-.159.158-.324.329-.139.646a9.541,9.541,0,0,0,1.763,2.195A8.647,8.647,0,0,0,14,15.782c.317.159.5.132.687-.079s.792-.925,1-1.242.422-.264.713-.159,1.848.872,2.165,1.031.528.238.607.37a2.649,2.649,0,0,1-.185,1.506,3.265,3.265,0,0,1-2.139,1.506,5.206,5.206,0,0,1-.769.061A4.023,4.023,0,0,1,14.859,18.59Z" transform="translate(0 0)" fill="#fff"/>
    </g>
  </g>
</svg>
